<?xml version="1.0" encoding="UTF-8"?>
<svg id="Layer_1" data-name="Layer 1" xmlns="http://www.w3.org/2000/svg" viewBox="0 0 213.29 210.83" fill="#1d1d1d">
  <path d="m95.04,40.96c0,4,0,7.89,0,11.79-.01,5.39-2.67,9.28-7.7,11.15-.89.33-1.29.72-1.18,1.69.09.77.02,1.55.02,2.46.73,0,1.29,0,1.86,0,3.28,0,6.55-.04,9.83,0,.79,0,1.14-.25,1.39-1.02,1.71-5.24,2.69-10.59,2.68-16.11,0-1.05.21-1.92,1.53-1.9,1.01.02,1.61.38,1.61,1.55,0,5.71-.57,11.33-2.47,16.76-.05.15-.05.31-.11.75.8,0,1.52,0,2.24,0,5.64.03,11.29-.08,16.92.14,7.4.3,14.46,5.86,16.64,12.96,2.32,7.55,4.52,15.15,6.78,22.72.14.46.34.9.52,1.37,4.93-2.51,9.98-4.31,15.3-5.31,1.38-.26,2.8-.33,4.18-.59.39-.07.89-.46,1.03-.83,1.85-4.76,5.03-8.33,9.47-10.8,1.22-.68,1.98-.55,2.54.45.5.89.21,1.65-.94,2.32-3.16,1.85-5.54,4.45-7.36,7.59-.12.21-.24.44-.34.66-.05.11-.05.24-.08.4,1.53.3,3.09.48,4.56.94,1.49.46,2.95,1.09,4.32,1.83,1.75.94,2.83,2.48,3.4,4.41.8,2.7,1.7,5.36,2.53,8.05.25.82.66,1.21,1.59,1.42,3.53.82,5.97,3.02,7.05,6.5.94,3.04,1.75,6.13,2.48,9.23.91,3.85-.3,7.09-3.07,9.84-.45.45-.86,1.15-.92,1.76-1,10.87-8.77,19.74-19.4,22.03-1.09.23-2.2.32-3.58.51,3.74,4.84,4.54,9.99,1.82,15.83.92,0,1.67,0,2.43,0,8.96,0,17.92-.04,26.88-.02,6,.02,11.68,4.55,13.28,10.34,2.45,8.85-4.67,16.78-12.42,17-6.22.18-12.44.06-18.66.07-5.56.01-11.12.04-16.67.03-6.41-.01-11.3-3.17-13.39-8.65-.37-.96-.59-1.98-.93-3.13-1.02.66-2,1.25-2.93,1.91-3.05,2.15-6.08,4.33-9.11,6.5-6.61,4.72-12.8,4.51-19.09-.64-.12-.1-.26-.19-.55-.4v6.25h-39.91c0-.5,0-.94,0-1.39,0-6.43,0-12.86,0-19.29,0-1.38-.93-2.13-2.24-1.87-.78.16-1.26.56-1.25,1.43,0,.95-.04,1.91-.04,2.86,0,5.72,0,11.45.03,17.17,0,.74-.09,1.15-.99,1.15-12.82-.03-25.63-.03-38.45-.04-.16,0-.31-.04-.63-.09.68-16.62,1.36-33.21,2.05-50.06-.97.22-1.72.37-2.45.56-9.07,2.35-17.4.77-24.74-5.03-9.13-7.21-12.51-18.51-9.09-29.83,3.86-12.75,7.81-25.48,11.71-38.22.73-2.37,1.33-4.79,2.14-7.13,2.54-7.35,9.27-12.55,17.03-12.77,8.62-.24,17.25-.15,25.88-.18,2.94-.01,5.89.02,8.83.03.61,0,1.23,0,1.99,0,0-.63,0-1.11,0-1.59,0-4.15-.02-8.3.02-12.44,0-.74-.24-1.07-.91-1.38-2.6-1.2-4.35-3.15-4.37-6.11-.02-4.84-.52-9.82.41-14.5,2-10.15,12.7-15.58,21.86-11.21,2.87,1.37,5.68,2.03,8.82,1.87,2.35-.12,4.72.1,7.08.19,1.23.04,1.75.71,1.73,1.93-.03,2.53.04,5.06-.02,7.59-.1,4.54-3.31,7.97-7.85,8.45-.16.02-.32.05-.63.1Zm-54.11,81.14c.1,0,.19.01.29.02,1.28-2.06,2.57-4.12,3.82-6.19,5.32-8.79,10.67-17.56,15.92-26.39,1.63-2.74,3.88-4.45,6.97-4.84,1.9-.24,3.92-.26,5.8.1,9.4,1.79,17.38,6.36,24.11,13.04,2.02,2.01,3.67,4.51,5.04,7.03,1.82,3.33,1.83,6.79-.47,10.1-1.46,2.1-2.72,4.33-4.09,6.54.48.51.99.99,1.43,1.53,1.5,1.83,1.91,3.8.79,5.99-2.34,4.57-4.64,9.16-7.01,13.71-1.76,3.39-4.58,5.5-8.22,6.54-1.03.3-2.12.42-3.12.8-.64.24-1.3.68-1.71,1.21-1.87,2.42-3.54,5-5.51,7.33-1.09,1.29-2.63,2.21-4.08,3.38h43.16c.04-.58.1-1.1.1-1.63,0-18.79,0-37.57,0-56.36,0-.91,0-1.83.07-2.73.07-.91.63-1.41,1.51-1.56.91-.15,1.53.28,1.89,1.07.18.41.27.87.35,1.31.19,1.05.35,2.1.56,3.4,7.3-2.03,14.45-4.01,21.5-5.97.06-.32.11-.4.09-.47-1.54-5.41-2.94-10.87-4.68-16.22-2.26-6.93-7.13-10.9-14.5-11.21-6.17-.26-12.35-.12-18.53-.21-.97-.01-1.46.3-1.89,1.17-2.45,4.97-5.45,9.58-9.41,13.51-1.01,1-1.94,1.15-2.71.41-.69-.67-.57-1.61.35-2.64.64-.71,1.3-1.4,1.93-2.12,2.48-2.81,4.6-5.86,6.27-9.22.15-.3.23-.63.39-1.08-1.99,0-3.77,0-5.55,0s-3.62,0-5.41,0c-.11,1.04-.17,1.9-.3,2.76-.84,5.32-5.62,8.64-10.68,7.43-3.82-.91-6.39-4.35-6.47-8.82-.02-1.1-.34-1.41-1.43-1.39-3.48.07-6.97,0-10.45.03-8.38.05-16.76-.1-25.12.26-6.63.28-11.29,3.85-13.48,10.18-1.76,5.08-3.21,10.27-4.84,15.39-.27.85-.08,1.18.74,1.43,7.15,2.21,14.3,4.45,21.44,6.71.81.26,1.11.02,1.3-.76.2-.88.4-1.82.87-2.56.27-.43,1.11-.77,1.63-.69.45.07.96.72,1.16,1.22.21.55.11,1.23.11,1.85,0,5.14-.02,10.29-.01,15.43,0,.73.08,1.46.12,2.19Zm-28.62-20.44c-.63,2.28-1.16,4.37-1.78,6.42-1.97,6.49-4.07,12.95-5.94,19.47-2.16,7.53-1.39,14.76,3.2,21.24,5.93,8.37,15.61,11.77,25.96,9.32,16.83-3.99,33.66-8.03,50.48-12.05,2.66-.64,4.84-1.96,6.14-4.45,2.25-4.34,4.47-8.69,6.68-13.05.28-.54.49-1.16.56-1.76.19-1.54-.85-2.66-2.41-2.58-.86.05-1.72.23-2.57.39-1.87.35-3.72.82-5.6,1.06-1.33.17-1.9-.63-1.58-1.94.16-.68.43-1.34.62-2.02.57-1.96.01-2.88-2.15-3.44-.18.38-.41.77-.56,1.18-.7,1.9-1.47,3.79-2.03,5.73-.54,1.87-1.63,2.72-3.55,3.05-5.83,1.02-11.64,2.17-17.45,3.34-9.42,1.89-18.83,3.84-28.24,5.75-3.13.63-3.86-.09-3.03-3.22,2.12-8,4.3-15.98,6.49-23.97.21-.76.27-1.18-.65-1.47-5.53-1.72-11.04-3.51-16.57-5.25-1.97-.62-3.96-1.16-6.02-1.76Zm168.17,11.84c-11.53,10.61-24.7,15.22-40.29,11.94.06.21.14.55.25.89.87,2.72,1.78,5.42,2.62,8.15,1.41,4.63,2.53,9.36,4.22,13.89,3.16,8.48,9.51,13.15,18.49,13.74,8.46.56,14.99-3.11,19.49-10.28,1.53-2.44,2.25-5.17,2.7-8.09-.5-.04-.86-.08-1.22-.09-3.46-.09-5.99-1.77-7.05-5.06-1.46-4.53-2.81-9.09-4.04-13.68-1.01-3.78.53-6.89,4.03-8.66,1.67-.84,1.68-.89.8-2.74Zm-62.58,1.98c-.89,2.51-.36,68.27.54,71.07,11.62-8.44,23.21-16.98,35.16-24.89-1.3-1.15-2.84-2.31-4.1-3.71-1.15-1.29-2.48-1.82-4.11-2.21-10.85-2.59-18.43-8.9-21.76-19.76-1.5-4.9-2.83-9.86-4.21-14.8-.53-1.89-1.01-3.79-1.52-5.71Zm-78.73,16.4l.23.38c1.62-.28,3.25-.53,4.86-.85,10.83-2.16,21.66-4.33,32.5-6.49.82-.16,1.27-.52,1.63-1.38,1.27-3.04,1.77-6.47,4.23-8.92-4.44-2.04-8.68-4.43-12.44-7.58-3.76-3.16-7.02-6.73-8.94-11.64-7.44,12.31-14.76,24.4-22.07,36.49Zm105.89,20.52c.06-.13.11-.26.17-.4-.21-.49-.48-.96-.64-1.46-3.13-10.11-6.26-20.22-9.38-30.33-.57-1.85-.5-3.66.39-5.43,1.13-2.26,2.62-4.21,4.58-5.8.8-.65,1.99-1.27,2.2-2.1.22-.9-.5-2.03-.81-3.06-.01-.04-.03-.08-.03-.12-.21-.89-.62-1.26-1.58-.82-.71.33-1.49.48-2.25.69-5.73,1.63-11.45,3.28-17.18,4.88-.89.25-1.11.57-.79,1.47.55,1.51,1.02,3.06,1.43,4.61,1.68,6.31,3.29,12.64,4.99,18.95,2.1,7.78,6.68,13.6,13.95,17.16,1.56.77,3.3,1.17,4.95,1.75ZM80.8,36.67c-.51,2.7-1.79,4.81-3.58,6.6-2.55,2.54-2.69,2.05-4.38.3-1.02-1.05-2.37-1.1-3.7-.53-1.32.56-1.94,1.63-2.01,3.03-.11,2.09.74,3.13,3.03,3.71q2.08.53,2.16,2.64c.01.37.01.75,0,1.12-.03,5.85-.06,11.7-.08,17.54,0,.95.02,1.91.14,2.86.33,2.57,2.4,4.46,4.95,4.58,2.7.12,5.05-1.42,5.28-4.03.29-3.27.07-6.59.07-9.85-1.31-.39-2.64-.72-3.92-1.19-.86-.32-1.54-.9-1.14-2,.39-1.08,1.18-1.28,2.2-.96.51.16,1.04.3,1.56.41,6.39,1.32,10.34-2.37,10.06-8.16-.16-3.35,0-6.72.06-10.08.04-2.39.06-2.4-2.19-3.15-2.78-.93-5.56-1.84-8.53-2.82Zm55.71,140.93c-5.11,3.7-10.52,6.82-15.03,11.13-2.07,1.98-2.73,4.73-2.42,7.57.8,7.5,9.58,12.29,16.41,7.48,4-2.81,7.94-5.71,11.96-8.5.81-.56.77-1.03.33-1.71-.23-.35-.45-.7-.69-1.04-3.47-4.9-6.94-9.81-10.57-14.94Zm43.71,7.4c-4.27,0-8.32-.03-12.37.03-.51,0-1.06.42-1.53.75-3.37,2.4-6.7,4.86-10.1,7.23-2.72,1.9-2.91,2.32-1.83,5.48.19.55.41,1.09.7,1.58,2.17,3.6,5.25,5.62,9.57,5.58,4.8-.05,9.61-.06,14.41.02,1.01.02,1.16-.26,1.15-1.16-.04-4.6-.02-9.19-.02-13.79,0-1.86,0-3.72,0-5.72Zm3.17-66.3c-3.47,0-5.21,2.15-4.38,5.54.76,3.09,1.62,6.16,2.47,9.23.41,1.47.85,2.94,1.4,4.36.6,1.55,1.85,2.27,3.5,2.31,3.45.08,6.71-3.41,6.02-6.86-.68-3.43-1.78-6.79-2.81-10.15-.86-2.8-3.26-4.43-6.2-4.43Zm-136.68,39.78c10.43,6.95,24.89,2.89,29.66-7.2-10.05,2.44-19.86,4.82-29.66,7.2Zm-9.16-41.83c-.06-.01-.13-.03-.19-.04-.11.29-.24.57-.32.86-.67,2.38-1.34,4.77-1.99,7.16-.7,2.55-1.39,5.1-2.05,7.66-.09.37,0,.78.02,1.17.39-.01.8.03,1.18-.06.35-.08.83-.23.96-.49.85-1.69,2.12-3.37,2.29-5.15.35-3.67.11-7.41.11-11.12Zm50.71.04c.34.76.81,1.55,1.05,2.4.25.89.29,1.84.42,2.76,4.53-.38,6.53-1.65,6.93-4.37-2.81-.26-5.62-.53-8.4-.79Zm-47.09,42.38c-.16.92-.33,1.55-.35,2.19-.01.24.29.7.46.71,1.32.06,2.64.03,3.97.03.01-.09.03-.17.04-.26-1.29-.84-2.58-1.68-4.12-2.67Z"/>
  <path d="m161.58,65.61c-1.63-2.12-3.36-3.94-4.59-6.06-5.33-9.1.58-19.1,7.49-21.9,2-.81,4.23-1.03,6.34-1.59.52-.14,1.19-.45,1.43-.87,2.37-4.29,8.99-8.28,15.57-4.39.96.57,1.81,1.31,2.76,1.9.32.2.86.37,1.16.24,5.58-2.32,12.93-.43,16.83,3.77,7.99,8.6,5.56,20.9-5.21,25.82-.82.37-1.07.74-1.04,1.64.26,7.37-3.73,13.55-10.52,15.98-5.68,2.03-10.93.99-15.61-2.84-.35-.28-.7-.56-1.12-.9-.27.29-.49.51-.69.75-2.99,3.55-5.97,7.12-8.98,10.65-1.28,1.51-1.94,1.58-3.44.33-3.15-2.63-6.29-5.28-9.4-7.96-1.57-1.36-1.61-1.78-.29-3.39,2.86-3.5,5.79-6.94,8.68-10.41.26-.32.52-.64.63-.78Zm28.84.04c-.8-1.52-1.57-2.81-2.16-4.16-.41-.94-.91-1.15-1.82-.76-3.19,1.38-6.38,2.75-9.58,4.11-.84.35-1.67.75-2.54.97-1.22.31-1.88-.22-1.86-1.45.01-.73.18-1.47.35-2.2.84-3.63,1.71-7.25,2.53-10.88.08-.36-.03-1.07-.24-1.15-1.64-.64-3.31-1.16-5.03-1.73-.15.43-.24.65-.3.89-1.18,4.74-2.41,9.46-3.5,14.22-.38,1.68-1.11,3.07-2.22,4.36-2.83,3.25-5.61,6.55-8.4,9.83-.15.17-.24.4-.39.64,2.42,1.99,4.83,3.9,7.13,5.92.82.72,1.26.61,1.89-.15,2.71-3.25,5.4-6.51,8.2-9.67.83-.93,1.88-1.77,2.99-2.33,2.37-1.18,4.83-2.16,7.27-3.21,2.5-1.07,5.02-2.12,7.68-3.24Z"/>
  <path d="m139.34,46.44c-.04,10.56-5.7,17.6-14.39,18.02-4.92.24-9.13-1.48-12.5-5.04-3.36-3.55-4.44-7.93-4.01-12.77-.89,0-1.69.1-2.44-.03-.53-.1-1.25-.41-1.43-.82-.22-.5-.17-1.36.14-1.79.69-.97,1.61-1.77,2.46-2.63,1.58-1.59,3.14-3.2,4.77-4.73.68-.63.64-1.06.11-1.76-1.02-1.36-1.98-2.77-2.82-4.24-.29-.51-.4-1.46-.11-1.87.3-.43,1.26-.74,1.79-.59,1.55.43,3.04,1.07,4.52,1.7,2.18.93,4.34,1.83,6.8,1.73,1.19-.05,1.82-.46,2.44-1.58,2.02-3.59,5.26-5.78,9.13-7.05,1.02-.34,1.83.17,2.11,1.18.27.99-.19,1.6-1.09,1.91-2.14.73-4.15,1.7-5.69,3.42-.48.54-.87,1.15-1.3,1.73.07.09.15.19.22.28.6-.21,1.22-.39,1.81-.64,1.91-.79,3.81-1.61,5.72-2.41.38-.16.82-.4,1.18-.33.68.12,1.52.27,1.92.72.28.32.15,1.29-.13,1.77-.88,1.5-1.88,2.93-2.93,4.32-.51.68-.47,1.11.12,1.68,2.19,2.14,4.36,4.32,6.53,6.49.26.26.63.51.73.83.18.62.48,1.43.22,1.88-.26.47-1.09.77-1.72.86-.66.1-1.37-.15-2.15-.25Zm-15.44.16c.74-1.13,1.32-2.03,1.9-2.93,1.84-2.82,1.84-2.8,5.13-2.18,1.8.34,3.62.59,5.43.89-1.2-1.57-2.5-2.87-3.79-4.19-1.56-1.59-1.56-1.62-.71-3.67.14-.33.23-.68.42-1.23-.67.3-1.13.54-1.62.71-.55.19-1.12.48-1.67.45-2.94-.16-3.76,1.42-3.61,4.04.06,1-.58,1.62-1.67,1.55-1.08-.07-1.34-.8-1.33-1.73.01-1.18,0-2.37,0-3.48-1.22-.12-2.42-.12-3.58-.38-1.14-.25-2.23-.75-3.48-1.19.15.39.22.66.35.9,1.2,2.19,1.14,2.34-.64,4.14-1.27,1.28-2.45,2.64-3.62,3.91.06,0,.3.03.53,0,2.13-.3,4.28-.53,6.38-.96,1.39-.28,2.19.22,2.88,1.33.8,1.29,1.7,2.53,2.71,4Z"/>
  <path d="m193.64,8.72c4.77.5,9.55.99,14.32,1.5.7.07,1.4.14,2.09.27,1.17.21,1.68.84,1.54,1.85-.13.94-.87,1.45-2.03,1.34-1.94-.18-3.88-.39-5.81-.58-2.76-.28-5.52-.58-8.29-.82-.93-.08-1.87-.01-2.81-.01-.02.14-.04.28-.06.42.67.23,1.36.42,2,.71.83.36,1.68.73,2.42,1.23.69.46,1.08,1.16.61,2.04-.47.88-1.21,1.14-2.09.74-2.67-1.22-5.32-2.49-7.98-3.73-1.16-.54-2.32-1.09-3.55-1.66-.29.97-.52,1.87-.84,2.75-2.07,5.74-7.47,8.75-13.41,7.5-1.74-.37-3.48-.76-5.22-1.1-8.94-1.74-17.88-3.46-26.82-5.21-2.19-.43-2.44-.77-2.58-2.94-.23-3.74-.23-3.8,3.42-4.74,8.9-2.28,17.8-4.52,26.71-6.77,1.72-.44,3.45-.85,5.19-1.25,3.05-.69,5.8.03,8.07,2.13,1.39,1.28,2.65,2.74,3.8,4.24.49.63.88.73,1.54.58,4.65-1.03,9.3-2.04,13.95-3.05.48-.1.98-.15,1.47-.2.95-.1,1.54.37,1.7,1.26.16.92-.33,1.52-1.22,1.74-1.81.45-3.62.86-5.43,1.29-.23.06-.46.13-.69.19,0,.1-.02.19-.03.29Zm-55.15,3.51c.05.12.09.25.14.37,6.98,1.41,13.96,2.82,21.03,4.24.04-.81-.11-1.48.14-1.92.33-.57.91-1.2,1.51-1.38.81-.25,1.39.38,1.57,1.21.12.56.19,1.15.18,1.73-.03.93.39,1.32,1.29,1.46,1.59.25,3.16.64,4.76.9,1.48.24,2.98.38,4.58.57,0-1.79-.04-3.24.01-4.69.05-1.21,1.12-1.98,2.14-1.43.53.29.89,1.1,1.07,1.75.22.79.17,1.65.24,2.62,3.13-2.31,4.25-5.91,2.7-8.93-1.93-3.75-5.28-6.02-10.08-4.78,0,1.06-.02,2.17,0,3.28.04,1.82.17,3.65.16,5.47,0,1.35-.62,2.01-1.68,2.01-1.27,0-1.6-.81-1.64-1.88-.06-1.7-.12-3.4-.19-5.1-.04-.94-.1-1.87-.16-2.97-4.16,1.03-8.12,2.05-12.1,2.98-1.3.31-2.12.68-1.92,2.33.17,1.43-1,2.22-2.14,1.58-.49-.27-.79-1.01-1.01-1.6-.21-.56-.36-.83-1.04-.64-2.87.8-5.76,1.53-8.63,2.32-.33.09-.62.34-.93.51Z"/>
  <path d="m187.16,87.34c2.82,0,5.12,2.24,5.15,4.99.03,2.67-2.43,5.14-5.07,5.1-2.96-.04-5.26-2.22-5.28-5.02-.03-2.78,2.33-5.08,5.2-5.07Zm1.71,5.17c.05-1.18-.51-1.86-1.59-1.93-1.07-.07-1.92.69-1.97,1.76-.04.97.64,1.69,1.67,1.76,1.15.07,1.85-.51,1.89-1.59Z"/>
  <path d="m153.8,33.07c.01,2.94-2.15,5.17-5.02,5.21-2.71.03-4.95-2.28-4.97-5.13-.02-2.85,2.16-5.17,4.89-5.22,2.81-.05,5.09,2.25,5.1,5.14Zm-3.25.02c-.02-1.18-.63-1.75-1.8-1.69-1.07.05-1.73.7-1.74,1.71,0,1.06.73,1.79,1.8,1.77,1.15-.02,1.77-.65,1.74-1.78Z"/>
  <path d="m101.99,12.17c-.01-2.73,2.22-5.09,4.86-5.14,2.81-.06,5.13,2.23,5.15,5.09.03,2.96-2.23,5.29-5.1,5.27-2.7-.02-4.9-2.35-4.91-5.21Zm4.92,1.8c1.16,0,1.83-.63,1.84-1.71,0-1.18-.61-1.83-1.72-1.81-1.09.02-1.85.75-1.83,1.77.02,1.01.73,1.74,1.7,1.74Z"/>
  <path d="m138.59,73.05c-1.57-.04-2.24-1.11-1.6-2.27.72-1.3,1.55-2.54,2.37-3.78,1.46-2.2,2.95-4.39,4.45-6.57.56-.82,1.28-1.33,2.3-.69,1.02.64.91,1.49.35,2.35-2.25,3.41-4.51,6.83-6.81,10.21-.27.4-.83.6-1.05.75Z"/>
</svg>