<?xml version="1.0" encoding="UTF-8"?>
<svg id="Layer_1" data-name="Layer 1" xmlns="http://www.w3.org/2000/svg" viewBox="0 0 212.61 191.31" fill="#1d1d1d">
  <path d="m160.11,135.55c-12.81,0-25.42.01-38.03-.01-1.49,0-2.66.4-3.79,1.45-2.27,2.12-4.69,4.08-7.82,4.9-5.35,1.4-10.07.16-14.45-3.43-.49,2.06-.95,4.05-1.44,6.04-1.59,6.47-3.08,12.97-4.83,19.4-2.15,7.91-9.28,13.26-17.74,13.41-6.59.12-13.19.02-19.79.04-9.04.03-18.08.08-27.13.12-.8,0-1.22.14-1.57,1.1-1.82,4.93-4.55,9.21-9.32,11.85-.33.18-.66.36-1,.51-1.68.72-2.49.29-2.55-1.53-.11-3.4-.12-6.8-.12-10.2-.01-7.63.01-15.26.01-22.89,0-2.77.31-3.11,3.15-3.11,16.14,0,32.27,0,48.41,0,2.84,0,2.87.03,3.62-2.78,2.51-9.39,4.93-18.81,7.56-28.18.46-1.65.18-2.38-1.12-3.41-5.47-4.32-10.82-8.77-16.19-13.21-5.77-4.77-9.81-10.73-12.17-17.83-.19-.57-.3-1.06-1.11-1.05-5.14.06-10.28.08-15.43.11-.2,0-.39.04-.74.07.46,1.72.89,3.34,1.34,4.96,2.41,8.74,4.84,17.46,7.2,26.21.32,1.18.92,1.61,2.05,1.67,1.82.1,3.65.19,5.45.48.6.1,1.35.69,1.61,1.26,1.69,3.6-.49,7.16-4.5,7.48-.43.04-.87.08-1.37.13.32,1.31.64,2.46.87,3.62.68,3.44-.48,5.62-3.81,6.6-4.68,1.38-9.4,2.65-14.14,3.83-3.04.76-5.32-.51-6.32-3.52-.85-2.55-1.44-5.18-2.16-7.77-1.93-7.02-3.9-14.04-5.81-21.07-1.54-5.67-3.01-11.37-4.52-17.05-.73-2.76-1.74-5.46-2.19-8.26-1.68-10.44,5.97-20.81,16.45-22.45,1.67-.26,3.38-.43,5.07-.44,7.22-.04,14.44-.02,21.65.04.86,0,1.22-.27,1.54-1.03,5.53-13.14,15.66-20.59,29.44-23.07,6.45-1.16,12.88-.46,19,2.24,3.86,1.7,7.8,3.25,11.68,4.91.95.41,1.75.37,2.72-.04,5.03-2.12,9.98-4.58,15.19-6.13,9.61-2.85,18.91-1.54,27.76,3.25,6.69,3.62,11.83,8.73,15.44,15.39.34.63.69.91,1.42.91,6.47-.04,12.94-.03,19.41-.05.32,0,.65-.06,1.07-.11.03-.39.09-.75.09-1.1.02-10.53.02-21.07.06-31.6,0-.91-.24-1.53-1.03-2.06-1.58-1.06-3.06-2.28-4.64-3.35-.93-.63-1.36-1.41-1.31-2.49.04-.83.01-1.67.16-2.47.4-2.26,2.34-3.74,4.64-3.6.65.04,1.3.17,2.12.28.02-.44.06-.83.06-1.22,0-2.07-.09-4.15,0-6.22.1-2.51,1.81-4.49,4.12-4.97,2.24-.47,4.64.59,5.64,2.68.4.83.57,1.82.61,2.75.09,2.4.09,4.81.05,7.21-.01.84.27,1.07,1.08,1.05,2.89-.08,2.35.36,2.39-2.33.04-2.11-.04-4.23.05-6.34.1-2.54,1.5-4.27,3.82-4.93,2.07-.59,4.55.21,5.65,2.11.57.98.9,2.26.9,3.4.06,12.69.04,25.38.04,38.07,0,6.8-.1,13.61.03,20.41.16,8.39-6.2,16.71-15.35,18.84-1.44.33-2.96.36-4.45.37-7.05.05-14.1.06-21.16.03-1.07,0-1.48.23-1.8,1.38-2.34,8.54-6.71,15.81-13.77,21.34-1.98,1.55-3.9,3.18-5.85,4.78.03.16.07.32.1.48,1.12,0,2.24-.02,3.36,0,4.68.12,9.39-.07,14.03.44,8.56.94,15.83,9.08,15.96,17.7.07,4.47-.34,8.95-.56,13.42-.27,5.38-.59,10.76-.89,16.14-.32,5.71-.62,11.43-.98,17.13-.08,1.19.2,1.76,1.43,2.24,4.9,1.9,9.11,4.74,11.63,9.59,1.2,2.32.67,3.22-1.94,3.22-9.42,0-18.83-.02-28.25-.03-1.74,0-3.48-.05-5.22,0-1.27.04-1.86-.53-1.85-1.76.03-4.14-.06-8.3.15-12.43.35-6.58.9-13.15,1.38-19.72.44-6.04.9-12.07,1.33-18.11.09-1.19.12-2.39.19-3.71ZM43.19,66.01c-8.32,0-16.4-.14-24.47.04-6.89.16-13.32,5.98-14.78,12.7-.87,4.01-.14,7.82.91,11.64,4.23,15.44,8.48,30.87,12.71,46.31,1.09,3.98,1.12,4.01,5.17,2.82,3.73-1.1,7.45-2.23,11.18-3.33,2.1-.62,2.41-1.13,1.86-3.3-.41-1.6-.88-3.19-1.26-4.81-.31-1.32.08-1.88,1.4-2.06,1.11-.15,2.24-.13,3.34-.31.62-.1,1.32-.32,1.76-.72.8-.72.58-1.38-.5-1.55-1.84-.28-3.69-.51-5.55-.66-1.42-.11-2.17-.82-2.48-2.16-.31-1.33-.67-2.65-1.03-3.96-2.79-10.13-5.59-20.26-8.37-30.4-.55-1.99,0-2.65,2.07-2.76.29-.01.58,0,.87,0,4.73,0,9.46.02,14.18.02.73,0,1.46,0,2.32,0-.96-5.93-.95-11.69.66-17.51Zm33.32,56.57c-.14.34-.25.56-.31.79-2.68,10.16-5.34,20.33-8.03,30.49-.69,2.59-.8,2.62-3.37,2.62-13.02,0-26.05.04-39.07.03-1.06,0-1.34.34-1.33,1.35.04,5.02.04,10.04-.01,15.05-.01.98.33,1.17,1.22,1.16,4.89-.03,9.79,0,14.68,0,10.66,0,21.32.1,31.98-.06,6.97-.1,12.87-4.8,14.6-11.58,2.18-8.54,4.11-17.14,6.1-25.73.08-.36-.17-.97-.46-1.22-4.54-3.75-9.11-7.47-13.68-11.18-.73-.59-1.51-1.13-2.32-1.74Zm48.11,9.33c.04.09.08.18.13.27.32.02.65.05.97.05,10.82.01,21.65.02,32.47.04,1.37,0,2.73.09,4.1.13.8.02,1.24.44,1.33,1.2.07.57.11,1.16.07,1.73-.27,3.93-.55,7.86-.87,11.78-.76,9.42-1.54,18.83-2.33,28.25-.18,2.17-.2,2.18,1.99,2.18,4.77,0,9.54,0,14.31-.01.55,0,1.17.17,1.21-.79.12-2.77.32-5.54.46-8.31.4-7.95.78-15.9,1.16-23.85.23-4.88.69-9.77.63-14.65-.1-8.07-6.11-14.33-14.16-15.15-1.11-.11-2.23-.15-3.35-.15-4.93-.01-9.87-.04-14.8.04-1.07.02-2.38.12-3.15.73-5.27,4.16-10.42,8.47-15.61,12.74-1.52,1.25-3.04,2.52-4.56,3.78Zm43.95-69.26c-.04.24-.08.33-.06.39,1.87,5.16,2.82,10.46,2.22,15.96-.09.83.33.97,1.03.97,7.34-.03,14.68,0,22.02-.07,3.07-.03,5.98-.78,8.55-2.58,4.87-3.42,6.8-8.21,6.78-14.02-.04-17.74-.02-35.49-.02-53.24,0-1.78-.04-3.56-.06-5.35,0-1.07-.78-1.3-1.59-1.37-.78-.06-1.51.18-1.68,1.1-.1.52-.14,1.07-.14,1.6-.01,5.47.01,10.95-.02,16.42-.01,2.34-1.71,4.44-3.92,5-3.3.83-6.47-1.63-6.51-5.14-.05-5.64-.03-11.28-.06-16.92,0-1.56-.53-2.12-1.8-2.1-1.12.02-1.63.66-1.65,2.16-.02,1.78,0,3.57,0,5.35,0,1.37.01,2.74-.05,4.1-.09,2.06-.97,2.59-2.83,1.78-.72-.32-1.43-.65-2.15-.97-1.3-.59-2.05-.17-1.99,1.26.03.62.38,1.39.85,1.79,1.44,1.24,2.96,2.41,4.55,3.45,1.17.77,1.64,1.67,1.63,3.07-.03,11.53,0,23.05,0,34.58,0,2.27-.38,2.65-2.7,2.66-6.18,0-12.36,0-18.54,0-.64,0-1.28.07-1.89.1Zm-46.53,25.94c0-1.78.01-3.57,0-5.35-.01-1.78-.03-3.56-.08-5.34-.03-1.14-.88-1.27-1.75-1.28-.89,0-1.68.14-1.73,1.29-.04,1.12-.17,2.23-.17,3.35.02,4.89.03,9.78.14,14.67.02,1.17-.32,1.5-1.47,1.46-2.28-.08-4.56-.05-6.84.02-1.62.05-1.91.4-1.88,1.8.03,1.2.44,1.59,1.98,1.62,3.11.05,6.22.06,9.33.04,2.14-.01,2.42-.26,2.46-2.46.06-3.27.02-6.55.01-9.82Zm-10.77,31.32c.36-1.13-.43-1.48-1.51-1.59-.29-.03-.58-.04-.87-.07-5.14-.5-10.11-4.45-11.28-8.98-.3-1.15-1.17-1.68-2.29-1.39-1.08.28-1.51,1.09-1.14,2.34,1.18,4.01,3.49,7.18,7.13,9.32,2.41,1.42,5.03,2.07,7.8,2.18,1.87.07,2.15-.18,2.15-1.81ZM202.08,17.19c-.98,0-1.81-.06-2.62.03-.29.03-.76.43-.77.67-.05,1.65-.01,3.3,0,4.95.01,1,.66,1.19,1.49,1.18.84-.01,1.81.08,1.87-1.08.09-1.88.02-3.76.02-5.75Z"/>
</svg>