<?xml version="1.0" encoding="UTF-8"?>
<svg id="Layer_1" data-name="Layer 1" xmlns="http://www.w3.org/2000/svg" viewBox="0 0 212.58 209.08" fill="#1d1d1d">
  <path d="m186.04,104.46c-6.59,0-13.19.02-19.78-.01-2.04-.01-2.26-.24-2.31-2.31-.13-5.21-.86-10.32-2.41-15.3-6.37-20.38-19.76-33.98-40.31-39.45-26.84-7.15-53.07,4.54-66.13,29.13-4.02,7.57-6.21,15.78-6.39,24.44-.07,3.42-.26,3.51-3.69,3.51-12.36,0-24.72.05-37.07.07-.79,0-1.58-.03-2.36-.09-1.57-.11-1.86-.36-1.83-1.99.05-2.94.13-5.89.34-8.82.9-12.47,4.34-24.26,9.76-35.48,5.46-11.32,12.82-21.27,21.95-29.91,10.41-9.85,22.37-17.22,35.85-22.03C84.24,1.72,97.25-.49,110.68.09c8.38.36,16.5,1.96,24.53,4.3,16.84,4.9,31.34,13.7,43.76,26.01,8.12,8.04,14.59,17.29,19.6,27.53,5.83,11.93,9.33,24.51,10.01,37.81.1,1.99.24,3.97.31,5.96.08,2.27-.45,2.82-2.7,2.83-4.73.03-9.45.04-14.18.05-1.99,0-3.98,0-5.97,0v-.13Zm19.38-7.6c-.23-7.81-2.01-15.61-4.26-23.29-3.9-13.32-10.64-25.1-19.69-35.61-9.35-10.85-20.48-19.33-33.47-25.29-8.91-4.09-18.2-7.06-28.02-8.17-6.15-.7-12.29-.98-18.48-.73-9.85.4-19.4,2.12-28.66,5.51-19.74,7.21-35.72,19.35-47.85,36.52-11.24,15.89-17,33.66-17.95,53.04-.12,2.48-.1,2.45,2.36,2.42.93,0,1.26-.26,1.33-1.26.26-3.84.56-7.69,1.01-11.51,1.25-10.58,4.8-20.47,9.69-29.85,7.3-14,17.52-25.47,30.51-34.49,11.7-8.12,24.6-13.31,38.55-15.77,15.29-2.71,30.35-1.45,45.14,3.4,10.3,3.38,19.78,8.26,28.39,14.81,13.78,10.5,23.98,23.75,30.71,39.78,4.36,10.39,6.46,21.19,7.12,32.35.16,2.66.08,2.66,2.78,2.55.08,0,.17,0,.25,0,.67.03.85-.3.78-.93-.1-1.07-.14-2.15-.22-3.48Zm-6.88,4.33c.07-.26.13-.38.13-.5-.19-6.48-1.06-12.85-2.54-19.18-3.2-13.69-9.24-25.96-18.07-36.83-9.33-11.48-20.77-20.27-34.33-26.28-8.4-3.72-17.09-6.36-26.25-7.12-5.19-.43-10.42-.44-15.63-.47-6.46-.04-12.81,1-19.03,2.66-17.06,4.57-31.73,13.21-43.81,26.12-15.63,16.71-23.88,36.56-25.03,59.39-.12,2.4-.09,2.36,2.34,2.3.99-.02,1.34-.31,1.37-1.36.17-6.53.99-12.99,2.65-19.3,3.54-13.39,9.83-25.36,18.96-35.8,11.36-12.99,25.24-22.01,41.79-27.02,12.14-3.68,24.47-4.75,36.99-3.01,12.67,1.76,24.51,6.05,35.3,12.94,15.32,9.78,26.72,22.98,34.15,39.63,3.79,8.49,6.05,17.33,6.88,26.56.21,2.39.39,4.77.59,7.25h3.52Zm-7.01-3.79c-.12-5.76-1.43-11.32-2.88-16.86-4.93-18.75-15.39-33.84-30.6-45.59-11.26-8.7-23.98-14.25-38.18-16.33-10.15-1.48-20.25-1.43-30.3.49-15.99,3.06-29.95,10.31-41.73,21.49-16.71,15.86-25.68,35.4-26.86,58.46-.13,2.43-.52,2.11,2.07,2.2,1.28.05,1.59-.42,1.63-1.64.18-5.35.87-10.66,2.1-15.87,2.09-8.92,5.76-17.18,10.7-24.86,9.51-14.78,22.43-25.54,38.75-32.01,17.4-6.9,35.11-7.94,53.16-2.42,16.61,5.07,30.35,14.3,41.09,27.89,7.62,9.64,13.09,20.44,15.53,32.56,1,4.98,1.29,10.1,1.94,15.14.05.4.37,1.07.59,1.08,1.04.05,2.09-.07,3.13-.18.03,0,.04-.46.03-.7-.04-.95-.1-1.9-.15-2.86Zm-6.82.38c.06-.02.12-.03.18-.05-.66-3.79-1.2-7.6-1.98-11.36-3.21-15.36-10.49-28.54-21.69-39.49-12.43-12.14-27.25-19.49-44.53-21.71-4.94-.63-9.9-.74-14.89-.48-7.8.4-15.38,1.76-22.68,4.53-15.9,6.04-28.7,16.05-38.17,30.2-7.94,11.88-12.14,25.04-13.01,39.27-.17,2.86-.11,2.89,2.81,2.5.32-.04.77-.54.82-.87.17-1.1.2-2.23.27-3.34.94-15.04,6.39-28.35,15.6-40.14,10.8-13.83,24.9-22.68,41.88-26.85,12.66-3.11,25.24-2.73,37.78,1.06,11.57,3.5,21.75,9.27,30.53,17.53,8.16,7.67,14.17,16.84,18.39,27.18,3.01,7.37,4.3,15.11,4.88,23,.19,2.59.17,2.57,2.85,2.5.73-.02,1.06-.17.98-.99-.09-.82-.02-1.66-.02-2.48Zm-7.11.09h.05c-.14-1.36-.23-2.73-.43-4.08-1.4-9.2-3.94-18.05-8.71-26.12-11.68-19.71-28.7-31.77-51.41-35.4-8.74-1.4-17.55-1.14-26.21.8-18.61,4.16-33.21,14.32-43.97,30-7.38,10.75-11.09,22.78-12.02,35.72-.19,2.62-.1,2.59,2.5,2.47.89-.04,1.19-.28,1.22-1.22.19-5.57.9-11.1,2.62-16.4,7.16-22.04,21.52-37.17,43.44-45.01,10.05-3.6,20.38-4.67,30.86-3.09,13.22,2,25.06,7.31,35.19,16.18,10.12,8.86,17.05,19.77,20.81,32.67,1.49,5.12,2.16,10.38,2.42,15.69.04.83.26,1.14,1.13,1.17,2.77.1,2.77.14,2.58-2.64-.02-.25-.04-.5-.07-.74Zm-71.41-59.41c-7.11-.03-14.35,1.03-20.99,3.39-14.25,5.04-25.44,14.02-33.58,26.75-5.9,9.23-8.96,19.42-9.77,30.3-.18,2.49-.1,2.46,2.41,2.4.93-.02,1.2-.32,1.33-1.28.55-4.27.92-8.59,1.93-12.75,2.3-9.53,7.06-17.87,13.57-25.12,8.15-9.09,18.29-15.12,30.06-18.26,11.33-3.02,22.56-2.67,33.76,1.07,10.27,3.43,19.12,9.01,26.35,16.97,9.57,10.54,14.8,23.03,15.73,37.28q.14,2.09,2.26,2.07c.25,0,.5-.02.75-.01.65.03.87-.24.81-.9-.23-2.35-.23-4.74-.64-7.06-2.62-15.06-9.2-28.01-20.65-38.3-12.31-11.06-26.77-16.54-43.32-16.55Z"/>
  <path d="m38.54,130.62c2.38-3.31,5.16-5.95,8.35-8.17,1.22-.85,2.05-1.87,2.52-3.37,1.32-4.2,3.88-7.44,7.92-9.45.61-.3,1.07-1.11,1.38-1.78.93-2.07,1.59-4.29,2.65-6.28,3.22-6.04,8.56-9.32,15.03-10.86,4.88-1.16,9.32-3.04,12.59-6.98,1.34-1.62,2.47-3.42,3.59-5.21,4.51-7.2,12.77-10.6,20.38-7.92,5.9,2.08,10.05,6.12,11.74,12.38.16.61.6,1.32,1.13,1.62,2.07,1.19,4.22,2.24,6.63,3.49,0-1.46-.02-2.71,0-3.97.05-2.3,1.12-2.96,3.1-1.81,3.11,1.82,6.21,3.66,9.23,5.63,1.42.93,2.82,1.09,4.35.62,1.5-.45,2.99-.96,4.48-1.44,4.49-1.44,9.64,3.8,8.1,8.02-.43,1.17-.63,2.24,0,3.45.21.39-.1,1.36-.49,1.68-.37.3-1.16.12-1.76.08-.59-.03-1.19-.26-1.77-.2-.98.09-1.96.3-2.92.53-.38.09-.8.27-1.06.55-1.78,1.92-4.04,2.85-6.58,3.14-.77.09-.95.41-.97,1.1-.09,2.65-.11,2.73,2.54,2.79,7.86.16,12.67,4.85,14.77,11.63,2.87,9.29,5.81,18.57,8.69,27.86.6,1.93,1.05,3.9,1.87,5.83.06-1.46.18-2.92.18-4.38.01-11.16.01-22.32,0-33.48,0-2.8.99-5.11,3.48-6.42,1.27-.67,2.83-1.07,4.27-1.09,9.21-.09,18.41-.06,27.62-.02,2.71.01,2.92.32,2.95,3.05,0,.83-.05,1.66.03,2.49.43,4.78-4.37,8.64-8.3,8.33-.99-.08-1.99.03-2.98-.01-.7-.03-.96.25-.95.94.02,1.37-.03,2.74-.03,4.11,0,14.9,0,29.79,0,44.69,0,6.93-2.54,12.79-7.64,17.46-11.31,10.33-29.92,6.51-36-7.58-2.44-5.64-4.07-11.64-6.06-17.47-.1-.31-.2-.62-.47-.92-.09,1.82-.26,3.64-.26,5.46-.03,12.2-.03,24.4-.03,36.6,0,3.71-.17,3.77-3.86,3.74-9.58-.08-19.16-.06-28.74-.06-15.39,0-30.77,0-46.16,0-2.2,0-4.4-.06-6.59-.01-1.02.02-1.47-.47-1.53-1.37-.1-1.49-.17-2.98-.16-4.47,0-.84-.25-1.13-1.12-1.18-6.99-.45-13.25-2.8-18.58-7.42-.73-.63-1.4-.36-2.09-.2-3.61.84-7.21.89-10.85.17-9.27-1.83-17.22-10.48-17.64-19.9-.36-8.16-.2-16.34-.22-24.51-.03-8.8,0-17.59,0-26.39,0-1.7-.01-1.7-1.66-1.69-.91,0-1.83.03-2.74,0-4.45-.14-7.8-3.52-7.88-7.96-.02-1.12,0-2.24,0-3.36.02-2.04.44-2.52,2.47-2.54,4.23-.04,8.46-.02,12.69-.02,4.94,0,9.87-.02,14.81.02,2.15.01,4.22.35,5.93,1.83,1.59,1.38,2.44,3.11,2.44,5.24,0,4.11-.02,8.22,0,12.32,0,1.02.13,2.04.19,3.05Zm60.68-19.17c-.29-.02-.46-.03-.62-.03-10.24.03-20.48.05-30.73.08-1.64,0-1.65,0-1.65,1.61,0,30.45,0,60.9-.03,91.34,0,1.07.34,1.31,1.34,1.31,25.79-.02,51.59-.01,77.38.03,1.17,0,1.46-.3,1.46-1.44-.04-9.79-.02-19.58-.02-29.37,0-20.7-.02-41.4-.04-62.1,0-.43-.06-.86-.1-1.38h-32.98c0,1.09.02,2.09,0,3.08-.11,4.03-2.89,7.13-6.63,7.43-3.43.27-6.51-2.43-7.14-6.4-.21-1.33-.17-2.71-.25-4.16Zm109.78-.02c-3.65,0-7.13,0-10.61,0-5.23,0-10.45-.04-15.68,0-3.96.03-5,1.11-5,5.05-.01,15.93-.02,31.86-.03,47.79,0,.5.1,1.06-.09,1.47-.25.53-.68,1.14-1.18,1.35-.72.3-1.49.06-1.86-.77-.28-.64-.55-1.3-.76-1.97-4.1-13.12-8.18-26.24-12.29-39.35-.75-2.41-1.45-4.85-2.44-7.16-1.53-3.58-5.8-6.37-9.19-6.17-.02.46-.06.94-.06,1.43,0,12.24-.02,24.48.02,36.71,0,1.14.19,2.33.54,3.41,2.78,8.54,5.51,17.1,8.47,25.58,3.66,10.5,15.41,15.79,25.59,11.68,7.93-3.2,12.44-9.88,12.44-18.45,0-16.84,0-33.69,0-50.53,0-2.27.61-2.88,2.86-2.9,1.7-.01,3.4.03,5.1-.03,2.31-.09,3.83-1.35,4.15-3.53.16-1.09.03-2.21.03-3.61Zm-146.29.2c-.42,0-.63-.03-.82,0-4.24.78-7.27,3.11-8.85,7.14-.66,1.69-1.11,3.47-1.66,5.2-3.66,11.61-7.31,23.21-10.97,34.82-.76,2.41-1.51,4.82-2.27,7.22-.3.96-.98,1.21-1.93,1.13-.95-.08-1.1-.78-1.24-1.46-.12-.56-.12-1.15-.12-1.73-.02-6.14-.02-12.28-.03-18.42,0-9.87.01-19.75-.03-29.62-.02-3.36-1.16-4.44-4.52-4.49-2.28-.03-4.56,0-6.84,0-6.26.03-12.52.06-18.78.12-.38,0-.98.22-1.09.49-1.14,3.02.93,6.26,4.15,6.49,1.65.12,3.32.05,4.97.07,2.53.03,2.99.49,2.99,2.97,0,16.97,0,33.93.01,50.9,0,1.2.1,2.41.33,3.58,1.72,8.66,9,15.03,17.58,15.79,8.43.75,17.41-4.89,20.12-13.02,2.8-8.4,5.6-16.8,8.31-25.23.46-1.43.69-3,.69-4.51.04-11.74,0-23.48,0-35.22,0-.7,0-1.39,0-2.23Zm47.03-7.19c-.81-.22-1.57-.39-2.32-.63-1.02-.33-1.31-1.14-1.12-2.08.19-.95,1.02-.98,1.79-.9,1.07.11,2.13.34,3.2.42,2.05.15,3.63-1.14,3.68-3.17.09-3.23.11-6.47,0-9.7-.08-2.33-1.45-3.81-3.81-4.52-.1.26-.23.51-.3.78-.58,2.18-1.97,3.68-3.86,4.81-1.26.75-2.43.81-3.69-.09-1.67-1.19-3.78-.18-4.03,1.87-.18,1.4.36,2.42,1.98,3.05,1.24.49,1.53,1.23,1.51,2.46-.07,4.44-.04,8.88-.04,13.31,0,1.87-.04,3.73.05,5.6.07,1.6,1.61,2.9,3.3,2.94,1.81.04,3.6-1.16,3.64-2.71.1-3.81.03-7.62.03-11.45Zm16.52-10.95c1.17-.25,2.25-.46,3.32-.73,1.02-.26,1.77-.06,2.48.82,3.13,3.83,7.29,6.03,11.98,7.34,2.94.82,5.58.27,7.48-2.2,1.02-1.32,2.1-1.75,3.68-1.54,1.51.19,2.58-.67,3.11-2,.51-1.27.51-2.66-.49-3.73-1-1.08-2.25-1.73-3.79-1.15-.95.36-1.87.8-2.88,1.23.22.19.37.33.53.45.72.53,1.7.92,1.48,2.06-.22,1.18-1.27,1.43-2.22,1.71-1.62.49-3.23,1.04-4.88,1.42-3.9.89-7.23-.23-10.18-2.87-1.31-1.17-2.76-2.22-4.28-3.09-1.91-1.1-3.96-1.95-6.16-3.02.3,1.89.55,3.5.83,5.28Zm9.78,11.05s-.01,0-.02,0c0-.78.03-1.57-.01-2.35-.02-.38-.06-.89-.3-1.11-1.79-1.58-3.57-3.2-5.51-4.58-.53-.38-1.61,0-2.43.03.06.52-.03,1.12.2,1.54,1.81,3.24,3.64,6.47,5.59,9.63.26.43,1.22.53,1.86.55.2,0,.54-.77.59-1.22.1-.82.03-1.65.03-2.48Zm3.21-1.8c0,1.18,0,2.12,0,3.06,0,2.42,0,2.43,2.47,2.38.38,0,1.09-.14,1.1-.25.07-1.26.04-2.53.01-3.8,0-.09-.24-.21-.39-.27-.97-.35-1.94-.69-3.19-1.13Z"/>
</svg>