<?xml version="1.0" encoding="UTF-8"?>
<svg id="Layer_1" data-name="Layer 1" xmlns="http://www.w3.org/2000/svg" viewBox="0 0 782.37 163.1">
  <defs>
    <style>
      .cls-1 {
        fill: #fff;
      }
    </style>
  </defs>
  <g id="hhy9vF.tif">
    <g>
      <path class="cls-1" d="m400.63.04c5.22,0,13.91,1.76,22.48,4.26,8.91,2.61,16.95,6.86,24.49,12.25,7.53,5.39,13.9,11.81,19.19,19.35,6.11,8.69,10.43,18.18,12.7,28.55,1.79,8.15,2.15,16.42,1.36,24.72-.96,10.17-3.82,19.82-8.4,28.94-2.74,5.47-6.26,10.45-10.23,15.11-8.6,10.08-19.24,17.37-31.27,22.73-6.55,2.92-13.4,5.06-20.49,6.09-17,2.47-33.54.62-49.28-6.44-18.54-8.31-32.43-21.52-41.55-39.71-4.81-9.58-7.03-19.76-7.78-30.35-.76-10.72.81-21.11,4.67-31.09,1.77-4.58,4.2-8.92,6.49-13.28,3.77-7.17,8.88-13.37,14.98-18.63,7.15-6.17,14.93-11.46,23.73-15.19C372.97,2.58,384.68.2,400.63.04Z"/>
      <path class="cls-1" d="m564.23,91.8c-1.99,2.36-3.89,4.65-5.84,6.91-4.93,5.72-9.91,11.41-14.8,17.17-.47.56-.67,1.51-.68,2.29-.05,13.19-.04,26.37-.04,39.56,0,2.71,0,2.73-2.67,2.74-10.65.02-21.31.03-31.96.04-.28,0-.57-.05-.95-.08V2.81c.4-.02.84-.06,1.28-.06,10.9,0,21.81.02,32.71-.03,1.26,0,1.62.33,1.61,1.6-.04,21.15-.02,42.3-.02,63.45,0,.44,0,.87,0,1.31.11.05.21.09.32.14.3-.3.62-.57.89-.89,9.63-11.59,19.25-23.19,28.88-34.78,7.8-9.39,15.6-18.77,23.41-28.15.66-.8,1.36-1.59,2.16-2.24.39-.32,1.06-.39,1.61-.39,11.07-.02,22.14-.02,33.21-.02,3.29,0,6.57,0,9.86,0,.45,0,.9,0,1.69,0-1.02,1.27-1.83,2.33-2.69,3.34-5.56,6.55-11.12,13.1-16.7,19.63-5.01,5.87-10.07,11.71-15.08,17.58-4.28,5.02-8.51,10.09-12.78,15.12-2.37,2.78-4.77,5.53-7.2,8.25-.56.62-.68,1.05-.18,1.81,4.46,6.8,8.88,13.62,13.31,20.44,4.77,7.34,9.55,14.68,14.3,22.03,5.9,9.13,11.77,18.27,17.67,27.4,4.41,6.83,8.85,13.64,13.27,20.47.28.44.51.91.87,1.56-.56.05-.9.11-1.24.11-13.02,0-26.05,0-39.07.04-1.21,0-1.83-.45-2.45-1.45-4.97-8-9.99-15.96-15.01-23.93-6.24-9.9-12.49-19.79-18.75-29.67-2.69-4.24-5.42-8.45-8.14-12.67-.22-.34-.48-.64-.77-1.02Z"/>
      <path class="cls-1" d="m670.74,81.55c0-25.79,0-51.59-.03-77.38,0-1.17.35-1.45,1.48-1.44,36.24.03,72.49.03,108.73,0,1.15,0,1.45.32,1.45,1.47-.05,9.12-.06,18.25-.02,27.37,0,1.25-.34,1.62-1.61,1.62-24.18-.03-48.35-.02-72.53-.01-1.79,0-1.8,0-1.8,1.77,0,9.7,0,19.41,0,29.11,0,1.57,0,1.54,1.63,1.51,2.62-.04,5.24-.06,7.86-.06,18.02,0,36.04,0,54.05,0,1.57,0,1.52,0,1.52,1.61-.03,8.75-.02,17.5-.04,26.25,0,2.87.18,2.4-2.4,2.4-20.35.03-40.7.04-61.04,0-1.31,0-1.6.4-1.59,1.62.04,10.37.04,20.73,0,31.1,0,1.21.41,1.43,1.51,1.43,23.18-.03,46.36-.02,69.53-.01,1.17,0,2.34.08,3.49-.01,1.11-.08,1.42.31,1.42,1.4-.04,9.25-.04,18.49,0,27.74,0,1.18-.4,1.48-1.51,1.46-3.74-.05-7.49,0-11.23,0-32.21,0-64.41,0-96.62-.01-2.28,0-2.23.44-2.23-2.18,0-25.59,0-51.17,0-76.76h0Z"/>
      <path class="cls-1" d="m68.28.02c9.84.25,19.45,1.9,28.75,5.05,9.63,3.27,18.01,8.64,25.08,15.98.78.81.92,1.24-.03,2.15-4.02,3.85-7.88,7.86-11.85,11.76-3.26,3.2-6.59,6.33-9.85,9.53-.68.67-1.11.62-1.72-.06-6.62-7.34-14.92-11.79-24.6-13.38-7.97-1.31-16.02-1.33-23.77,1.51-7.42,2.72-10.76,8.86-9.48,16.66,1.04,6.36,5.14,9.8,10.89,11.47,4.17,1.21,8.49,1.95,12.78,2.74,7.56,1.4,15.18,2.44,22.69,4.07,5.95,1.29,11.81,3.08,17.21,6.1,6.12,3.42,11.44,7.7,15.3,13.6,2.92,4.47,4.74,9.36,5.51,14.66.82,5.61,1.2,11.25.42,16.85-1.69,12.07-6.5,22.63-16.36,30.3-5.25,4.08-11.02,7.46-17.45,9.4-4.72,1.42-9.51,2.8-14.37,3.54-9.7,1.49-19.46,1.49-29.22.17-10.34-1.39-20.11-4.47-29.2-9.57-6.09-3.41-11.56-7.66-16.56-12.52-.68-.67-1.4-1.3-2.1-1.95-.44-.41-.5-.73.01-1.22,5.26-5.02,10.48-10.07,15.72-15.11,2.12-2.05,4.28-4.06,6.34-6.17.71-.72,1.11-.66,1.81-.02,2.61,2.36,5.16,4.83,7.97,6.94,8.01,6.02,17.15,9.18,27.09,10.11,6.26.59,12.47.48,18.46-1.76,4.43-1.66,8.31-4.07,10.57-8.42,2.83-5.45,2.82-14.47-1.61-19.12-2.72-2.86-6.13-4.49-9.85-5.27-4.62-.97-9.32-1.64-14.01-2.26-7.75-1.02-15.54-1.81-23.07-4.02-6.66-1.95-13-4.61-18.62-8.76-8.43-6.22-13.43-14.53-15.34-24.76-1.41-7.55-1.71-15.14.51-22.54,2.55-8.48,6.74-16.07,13.91-21.63,7.6-5.89,16.19-9.76,25.6-11.78C53.24.73,60.71-.13,68.28.02Z"/>
    </g>
    <rect class="cls-1" x="151.86" y="2.75" width="134.02" height="157.75"/>
  </g>
</svg>