<?xml version="1.0" encoding="UTF-8"?>
<svg id="Layer_1" data-name="Layer 1" xmlns="http://www.w3.org/2000/svg" viewBox="0 0 209.99 202.81" fill="#1d1d1d">
  <path d="m68.49,113.99c-1.61.93-2.97,1.72-4.32,2.51-16.24,9.39-32.49,18.78-48.74,28.17-1.9,1.1-2.42.95-3.54-.99-3.71-6.42-7.41-12.84-11.12-19.27-1.19-2.05-1.12-2.42.93-3.6,4.3-2.49,8.63-4.94,12.91-7.45.36-.21.74-.83.68-1.21-.53-3.97,1.27-6.58,4.65-8.38,2.23-1.19,4.42-2.45,6.58-3.77.63-.39,1.25-1.01,1.54-1.67,4.58-10.42,9.09-20.87,13.64-31.3,1.32-3.04,2.61-6.1,4.12-9.04,4.39-8.51,11.33-13.76,20.85-14.86,5.7-.66,11.5-.42,17.26-.52,3.86-.06,7.71-.03,11.57.02.78,0,1.02-.24,1.02-.98-.02-3.44.03-6.89-.03-10.33-.01-.56-.37-1.24-.79-1.65-1.33-1.3-2.37-2.83-2.4-4.64-.06-4.88-.23-9.8.26-14.65.58-5.72,5.6-10.05,11.36-10.36,2.54-.14,4.96.6,7.06,2.02,1.75,1.18,3.58,1.54,5.63,1.46,2.69-.1,5.39-.02,8.09-.05,1.23-.01,2.04.45,2.03,1.77-.04,3.2.69,6.48-1,9.51-1.13,2.03-2.7,3.57-4.87,4.42-.86.34-1.09.85-1.07,1.69.04,2.74-.04,5.48.07,8.21.18,4.7-2.01,7.88-6.1,9.94-.81.41-1.37,2.79-.76,3.44.15.17.52.19.79.19,7.47,0,14.93-.05,22.4,0,4.66.03,9.28.44,13.63,2.34,6.41,2.81,11.24,7.3,14.09,13.73,5.54,12.53,10.99,25.1,16.43,37.68.59,1.36,1.4,2.38,2.74,3.04,1.48.73,2.93,1.55,4.34,2.42,2.9,1.79,4.07,4.81,3.06,8.05-.28.89-.09,1.24.65,1.66,5.33,3.03,10.63,6.1,15.95,9.16.25.14.51.28.75.44,1.31.85,1.47,1.28.71,2.65-1.9,3.4-3.84,6.78-5.77,10.15-1.88,3.27-3.78,6.52-5.66,9.79-1.12,1.95-1.6,2.06-3.52.95-10.87-6.28-21.75-12.54-32.62-18.82-5.96-3.44-11.9-6.9-17.84-10.35-.67-.39-1.34-.76-2.26-1.28-.05,1.01-.16,1.78-.13,2.54.4,8.4.76,16.81,1.26,25.21.43,7.33.98,14.65,1.53,21.96.59,7.85,1.23,15.7,1.85,23.56.37,4.67.73,9.34,1.12,14.01.08.93-.1,1.31-1.18,1.3-11.41-.04-22.81-.05-34.22,0-1.2,0-1.55-.36-1.62-1.53-.66-10.84-1.35-21.68-2.08-32.52-.3-4.51-.77-9-1.06-13.51-.09-1.42-.98-1.2-1.88-1.28-1.06-.09-1.37.46-1.45,1.37-.5,5.45-1.03,10.89-1.51,16.34-.74,8.38-1.44,16.77-2.16,25.15-.14,1.61-.3,3.22-.43,4.83-.06.79-.34,1.14-1.23,1.14-11.95-.03-23.89-.02-35.84-.03-.4,0-.81,0-1.31,0,.33-3.97.61-7.8.98-11.62.6-6.31,1.27-12.62,1.89-18.93.72-7.3,1.45-14.6,2.12-21.91.48-5.16.86-10.33,1.29-15.49.54-6.4,1.19-12.8.84-19.24-.02-.44-.08-.88-.14-1.6Zm3.8-33.98c1.21-.68,2.19-1.22,3.15-1.77,4.17-2.38,8.35-4.76,12.5-7.16.86-.5,1.59-.49,2.41.07,1.12.78,2.33,1.43,3.46,2.21,4.24,2.91,3.55,1.56,2.55,6.33-.13.63-.03.95.53,1.31,1.64,1.05,3.25,2.15,4.83,3.28.33.23.67.69.69,1.06.15,2.69.25,5.38.27,8.08,0,.43-.38,1.02-.75,1.27-1.53.99-3.12,1.88-4.7,2.79-7.85,4.54-15.7,9.09-23.58,13.58-1.17.67-1.72,1.39-1.64,2.81.15,2.48.12,4.98.05,7.46-.03,1.11.31,1.4,1.4,1.4,20.2-.03,40.39-.02,60.59-.03,1.12,0,2.24-.02,3.36,0,.68.01.96-.26.96-.96,0-2.86.06-5.72.01-8.58,0-.43-.34-1.04-.71-1.26-6.2-3.67-12.44-7.28-18.66-10.91-3.58-2.08-7.18-4.12-10.72-6.27-1.55-.94-1.51-1.9-.04-2.95,1.55-1.11,3.16-2.14,4.68-3.28.39-.3.73-.89.78-1.38.2-1.85.33-3.72.39-5.58.04-1.16.68-1.73,1.66-2.04.55-.17,1.13-.39,1.69-.37,1.06.04,1.38-.5,1.42-1.42.09-1.66.18-3.31.31-4.97.12-1.55,1.1-2.74,2.96-1.64,5.06,2.99,10.19,5.88,15.29,8.8.23.13.48.22.86.38.04-.68.1-1.21.1-1.74,0-2.86-.03-5.72-.03-8.58,0-1,.16-1.95,1.33-2.25,1.17-.29,1.66.54,2.03,1.4.93,2.12,1.87,4.24,2.68,6.41.37,1,.81,1.15,1.73.75,5.78-2.49,11.57-4.94,17.35-7.41.74-.32,1.43-.74,2.08-1.08-.92-2.18-1.72-4.22-2.62-6.21-4.34-9.61-11.65-15.13-22.28-15.68-5.17-.27-10.36-.03-15.55-.02-3.77,0-7.54,0-11.33,0-.22.63-.37,1.29-.67,1.87-1.69,3.27-4.42,5.06-8.08,5.04-3.72-.02-6.83-2.47-8.04-6.01-.21-.6-.38-.97-1.16-.97-7.59.05-15.18.01-22.76.09-2.48.03-5.01.04-7.42.54-7.99,1.63-13.73,6.31-17.36,13.57-1.05,2.11-1.77,4.38-2.86,6.47-.64,1.22-.27,1.6.81,2.06,5.87,2.48,11.71,5.03,17.57,7.54.52.23,1.08.39,1.71.61.19-.44.36-.81.51-1.18.9-2.14,1.79-4.27,2.7-6.41.41-.96,1.05-1.69,2.18-1.36,1.04.3,1.21,1.21,1.21,2.2-.03,2.82-.02,5.64,0,8.46,0,.48.11.95.2,1.63ZM3.78,123.2c3.3,5.79,6.52,11.43,9.74,17.07.78,1.37.93,1.38,2.31.58,7.88-4.56,15.77-9.11,23.65-13.68,2.75-1.59,5.47-3.23,8.17-4.82-.04-.2-.04-.29-.07-.36-2.27-3.94-4.53-7.9-6.86-11.81-.17-.28-.97-.52-1.21-.37-1.03.65-1.95,1.47-2.93,2.2-.43.32-.9.8-1.36.8-1.67.02-2.85.95-4.13,1.85.17.43.47.83.43,1.19-.06.58-.19,1.31-.58,1.68-.58.55-1.56.58-1.98-.15-.79-1.4-1.55-.88-2.46-.25-.44.3-.98.46-1.43.75-.25.16-.59.46-.58.68.06.97-.6,1.36-1.29,1.27-.52-.07-.98-.68-1.44-1.08-.47-.41-.86-.93-1.36-1.29-.74-.52-1.52-1.01-2.35-1.37-.46-.2-1.17-.34-1.56-.13-4.27,2.37-8.49,4.82-12.72,7.24Zm39.8-52.38c-3.7,8.49-7.32,16.78-10.98,25.18q5.87-1.38,9.86,1.25c5.82-3.37,11.66-6.75,17.48-10.15.52-.31,1.16-.68,1.39-1.18.98-2.08,1.83-4.22,2.72-6.29-6.89-2.97-13.59-5.85-20.47-8.82Zm63.24-54.71c-.26.69-.46,1.31-.72,1.91-.27.6-.58,1.19-.9,1.77-1.17,2.04-1.38,2.12-3.62,1.37-2.08-.69-4.08.01-4.9,1.73-.85,1.8-.18,3.62,1.91,4.73,1.07.57,1.41,1.31,1.4,2.48-.06,4.85-.08,9.7,0,14.54.04,2.84,2.33,4.99,5.13,5.05,2.79.06,5.12-2.02,5.33-4.84.1-1.36.04-2.73.08-4.1.02-.66-.22-.86-.91-1-1.61-.34-3.21-.79-4.75-1.35-1.16-.43-1.57-1.41-1.08-2.24.54-.91,1.43-.85,2.31-.56.78.26,1.54.61,2.34.8,5.14,1.25,8.93-1.64,9.03-6.91.05-2.82,0-5.64.03-8.45,0-.65-.09-1.05-.88-1.2-.88-.16-1.72-.56-2.57-.89-2.38-.92-4.76-1.86-7.22-2.83Zm70.72,79c-1.41-3.1-2.67-5.79-3.87-8.51-2.12-4.81-4.21-9.63-6.28-14.46-.45-1.05-.98-1.15-1.99-.71-5.68,2.5-11.39,4.93-17.09,7.38-.63.27-1.27.51-1.97.79.9,2.14,1.73,4.17,2.62,6.17.21.47.53,1,.95,1.25,4.69,2.78,9.42,5.51,14.14,8.26.28-.25.5-.44.71-.64,2.74-2.64,5.25-3.05,8.71-1.39.67.32,1.31.71,1.99,1.03.58.27,1.18.48,2.09.84Zm5.75,17.51c.99-.33,1.92-.49,2.69-.92,3.13-1.73,3.54-5.45.72-7.14-4.9-2.94-9.88-5.75-14.85-8.56-.61-.35-1.42-.55-2.12-.51-2.51.12-4.16,2.66-3.69,5.45.42,2.44,2.18,3.71,4.12,4.83,3.3,1.91,6.59,3.84,9.93,5.67.99.54,2.14.8,3.2,1.19Zm-142.49-10.41c-.04-3.18-2.66-4.87-5.68-3.4-2,.97-3.92,2.14-5.85,3.25-3.01,1.73-6.04,3.43-9,5.25-2.73,1.68-2.59,5.01.15,6.68,1.73,1.05,3.48,1.08,5.18.12,4.35-2.47,8.68-4.98,12.97-7.54,1.52-.91,2.29-2.35,2.22-4.34Zm103.74-18.84c-.8-1.78-1.53-3.42-2.26-5.06-.32.76-.42,1.45-.47,2.14-.16,2.18.25,2.64,2.73,2.92Zm-75.86-5.22c-.2-.01-.41-.03-.61-.04-.62,1.66-1.24,3.33-1.86,4.99.15.09.29.19.44.28.68-.54,1.75-.96,1.95-1.63.33-1.11.09-2.39.09-3.61Z"/>
  <path d="m106.95,63.65c0,1.57.02,3.15,0,4.72-.02,1.34-.6,1.97-1.71,1.97-1.16,0-1.73-.57-1.74-1.92-.02-3.23,0-6.46.02-9.69.01-1.32.62-2.02,1.67-2.07,1-.04,1.67.68,1.71,2.01.05,1.66.01,3.31.01,4.97.01,0,.03,0,.04,0Z"/>
  <path d="m121,61.58c-.4.62-.61,1.13-.96,1.49-2.15,2.18-4.33,4.33-6.51,6.48-.83.82-1.87.89-2.54.24-.66-.63-.53-1.64.33-2.51,2.13-2.14,4.22-4.32,6.43-6.38.48-.45,1.38-.67,2.06-.62.41.03.76.8,1.2,1.3Z"/>
  <path d="m99.91,68.45c0,1.43-1.31,2.2-2.39,1.61-.18-.1-.35-.23-.5-.37-2.27-2.29-4.57-4.56-6.8-6.9-1-1.06-.72-2.21.58-2.61.38-.12,1.03-.01,1.31.25,2.48,2.37,4.92,4.79,7.35,7.22.25.25.36.63.45.79Z"/>
  <path d="m15.38,129.63c-.03,1.03-.78,1.78-1.58,1.74-.92-.05-1.73-.82-1.7-1.64.03-.88.86-1.67,1.73-1.58.94.11,1.48.66,1.55,1.47Z"/>
  <path d="m23.11,129.21c.02.92-.7,1.69-1.62,1.64-.93-.05-1.6-.52-1.62-1.51-.02-.98.55-1.5,1.54-1.52,1.03-.02,1.67.5,1.69,1.38Z"/>
  <path d="m12.68,125.18c-.08.96-.58,1.55-1.53,1.65-.85.09-1.57-.73-1.57-1.71,0-.97.56-1.48,1.48-1.46.92.02,1.56.5,1.63,1.51Z"/>
  <path d="m30.03,127.11c-.09,1.22-.58,1.79-1.66,1.76-1-.03-1.65-.68-1.55-1.66.1-1.01.81-1.39,1.72-1.35.89.03,1.45.5,1.48,1.26Z"/>
  <path d="m36.33,115.66c.17-.78.57-1.4,1.52-1.42.77-.01,1.69.99,1.64,1.71-.05.75-.96,1.54-1.71,1.48-.78-.06-1.52-.93-1.45-1.77Z"/>
  <path d="m25.96,121.19c.82.1,1.37.66,1.36,1.61,0,.86-.48,1.5-1.4,1.59-.87.08-1.69-.76-1.67-1.61.02-.89.71-1.58,1.71-1.59Z"/>
  <path d="m16.45,123.28c.01-1.17.68-1.57,1.55-1.51.8.05,1.57.38,1.58,1.4.01.88-.83,1.75-1.66,1.67-.99-.1-1.37-.81-1.47-1.56Z"/>
  <path d="m17.93,134.15c.03,1.01-.63,1.65-1.69,1.69-1.09.04-1.46-.71-1.52-1.57-.07-.96.61-1.37,1.48-1.45.94-.08,1.71.53,1.73,1.33Z"/>
  <path d="m33.62,120.84c.95.11,1.5.57,1.46,1.54-.04.94-.57,1.48-1.5,1.45-.92-.03-1.59-.45-1.57-1.52.02-1.09.75-1.36,1.61-1.47Z"/>
  <path d="m40.48,118.87c.86.09,1.52.43,1.49,1.43-.03.85-.3,1.6-1.34,1.57-.89-.02-1.65-.29-1.68-1.39-.03-1.03.57-1.47,1.53-1.61Z"/>
</svg>