<?xml version="1.0" encoding="UTF-8"?>
<svg id="Layer_1" data-name="Layer 1" xmlns="http://www.w3.org/2000/svg" viewBox="0 0 204.04 208.46" fill="#1d1d1d">
  <path d="m76.57,161.56c1.67-.68,3.33-1.38,5-2.05,1-.4,2.01-.77,3.03-1.12,2.73-.94,4.99-.06,6.83,1.98,1.75,1.95,2,4.26,1.02,6.62-1.08,2.62-3.25,3.75-6,3.87-2.31.1-4.62.18-6.93.28-.22.01-.44.15-.99.35,2.2.95,4.12,1.78,6.04,2.59,1.26.53,2.55.99,3.8,1.52,1.81.77,3.11,2.01,3.66,3.96.12.41.35.87.67,1.14,3.05,2.58,5.81,5.41,7.93,9.28.08-1.22.19-2.08.19-2.94-.08-12.32.11-24.65-.35-36.95-.31-8.22-1.55-16.41-2.34-24.62-.08-.86-.6-.98-1.24-1.08-6.01-1.01-11.74-2.93-17.09-5.81-11.16-6.02-19.25-14.89-24.12-26.64-.09-.23-.18-.46-.25-.7-.53-1.75.12-2.63,1.92-2.39,6.5.86,12.72,2.67,18.49,5.83,6.17,3.38,11.63,7.65,16.06,13.16,1.24,1.54,2.31,3.21,3.66,4.76-.19-1.01-.35-2.03-.58-3.03-2.01-8.55-4.03-17.09-7.13-25.33-.27-.71-.55-.91-1.32-.85-5.09.44-8.93-1.95-10.51-6.86-1.6-5-2.9-10.1-4.34-15.16-.18-.62-.44-1.22-.73-2.02-2.6,5.53-5,10.87-6.48,16.58-.67,2.57-1.87,4.77-4.13,6.29-3.5,2.36-8.09,1.98-11.1-.91-3.33-3.19-4.02-7.51-1.58-11.28,2.84-4.38,5.86-8.64,8.8-12.96.27-.4.54-.8.65-1.43-.28.09-.57.14-.84.26-3.66,1.61-6.49,4.24-8.99,7.29-1.57,1.92-3.53,3.23-6.02,3.67-3.87.68-8.07-1.67-9.81-5.47-1.57-3.44-.5-7.92,2.56-10.34.93-.74,1.98-1.39,3.07-1.86,4.86-2.11,9.74-4.14,14.62-6.19.33-.14.65-.27.98-.4-.01-.12-.02-.23-.03-.35-2.88-.06-5.77-.22-8.65-.15-1.89.04-3.78.49-5.67.63-5.1.37-9.12-3.11-9.76-8.36-.54-4.44,2.93-9.09,7.58-9.73,3.68-.51,7.38.02,10.95,1.03,3.02.86,5.97,1.96,8.96,2.95.45.15.91.28,1.68.52-1.16-1.68-2.12-3.07-3.07-4.45-1.71-2.49-3.62-4.88-5.09-7.5-3.76-6.69,1.26-14.85,8.92-14.52,4.09.18,6.82,2.6,8.42,6.23,1.08,2.46,1.91,5.03,2.82,7.56.7,1.93,1.35,3.88,2.1,6.07.35-1.01.62-1.84.92-2.66,1.71-4.61,3.31-9.28,5.19-13.82,1.9-4.58,6.94-6.92,11.7-5.72,4.86,1.22,8.31,5.8,7.95,10.66-.18,2.44-1.25,4.53-2.89,6.33-1.98,2.17-4.03,4.3-5.94,6.54-1.37,1.6-2.57,3.35-3.82,5.06-.24.33-.36.75-.3,1.28,2.02-1.19,4.04-2.38,6.05-3.57,3.49-2.07,6.95-4.19,10.47-6.22,3.31-1.91,6.65-1.9,9.86.21,2.98,1.96,4.35,4.82,4.23,8.36-.13,4.03-2.58,7.36-6.68,8.47-4.75,1.29-9.59,2.22-14.56,3.34.42.17.78.34,1.16.48,4.04,1.49,8.17,2.76,12.09,4.5,5.64,2.51,7.87,8.45,5.53,13.9-2.59,6.03-10.52,8.15-15.69,4.11-2.15-1.68-4.05-3.69-6.18-5.39-1.66-1.33-3.5-2.42-5.26-3.62-.1.11-.2.23-.3.34.85,1.41,1.71,2.83,2.56,4.24,1.69,2.8,3.41,5.59,5.07,8.41,3.21,5.45,2.64,9.43-1.89,13.81-.24.23-.38.81-.27,1.13,4.3,12.64,7.85,25.48,9.78,38.71,1.01,6.88,2.27,13.75,2.85,20.67.63,7.55.69,15.16.84,22.74.13,6.18,0,12.36.04,18.54.01,1.94.19,3.88.3,5.95.14-.16.27-.24.31-.36,2.51-8.25,6.81-15.61,11.38-22.82.5-.79.48-1.3.02-2.09-6.93-12-7.39-24.32-1.75-36.92.18-.41.43-.81.7-1.17.82-1.1,1.77-1.14,2.69-.14.2.21.38.44.53.69,4.53,7.46,6.98,15.44,6.02,24.26-.16,1.52-.34,3.03-.54,4.81.39-.34.64-.5.82-.72,5.91-7.07,12.68-13.21,20.14-18.61.2-.15.41-.29.61-.43,1.26-.88,2.37-1.6,2.22-3.63-.19-2.54,1.49-4.31,3.81-5.3,3.15-1.34,6.32-2.62,9.49-3.93,0-.12.02-.24.03-.36-.72-.14-1.43-.38-2.15-.41-1.49-.08-2.98-.09-4.47-.05-2.91.09-5.35-.73-6.77-3.46-1.22-2.35-1.02-4.68.61-6.77,1.64-2.1,3.85-3.15,6.47-2.28,3.25,1.07,6.41,2.42,9.61,3.64.14.05.3.06.85.15-1.54-2.12-2.89-3.95-4.67-5.42-.96-.79-2.01-1.48-2.94-2.3-2.55-2.24-2.83-6-.68-8.6,2.34-2.83,5.9-3.29,8.71-1.05,2.99,2.39,4.83,5.64,6.57,8.95.61,1.16,1.18,2.34,1.92,3.81.39-2.47.72-4.59,1.06-6.7.48-2.99,2-5.18,4.99-6.06,2.83-.83,5.16.25,7.03,2.31,2.03,2.23,1.95,4.84.85,7.45-.8,1.91-1.75,3.75-2.62,5.63-.16.36-.22.76-.37,1.28,2.49-1.28,4.79-2.47,7.1-3.66,4.32-2.21,8.54-.81,10.46,3.47,1.58,3.5.05,7.7-3.56,9.09-1.66.64-3.54.73-5.33.97-1.47.2-2.97.25-4.51.57.22.09.43.21.66.27,2.84.75,5.71,1.41,8.52,2.26,3.23.97,5.12,4.04,4.59,7.19-.55,3.3-3.53,5.93-6.84,5.62-1.44-.13-2.86-.96-4.19-1.65-1.26-.66-2.39-1.56-3.79-2.16.82,1.86,1.65,3.72,2.46,5.59.39.91.81,1.82,1.08,2.77,1.18,4.03-1.34,8.3-5.38,9.2-4.09.91-8.17-1.99-8.72-6.25-.43-3.28-.78-6.58-1.18-9.87-.03-.27-.11-.53-.17-.8-.11-.02-.21-.03-.32-.05-.35,1.24-.72,2.47-1.04,3.71-.52,2.05-.89,4.14-1.53,6.14-.92,2.91-3.11,4.52-6.06,4.79-2.68.25-4.85-.94-6.24-3.3-1.1-1.86-1.34-3.86-.43-5.84,1.01-2.22,2.18-4.37,3.27-6.55.17-.35.28-.73.41-1.09-.08-.06-.17-.13-.25-.19-1.79,1.37-3.61,2.69-5.36,4.11-3.3,2.67-5.37,2.82-9.03.62-.27-.16-.83-.19-1.08-.02-6.03,4.15-11.65,8.78-16.7,14.08-.13.14-.21.33-.46.74,1.43-.18,2.63-.35,3.83-.48,9.11-1.03,17.41,1.25,25.05,6.15,1.46.94,2.84,2.01,4.18,3.12,1.37,1.13,1.15,2.41-.53,2.99-8.98,3.1-17.98,3.58-26.96-.03-3.78-1.52-7.36-3.4-10.71-6.01-.82.95-1.66,1.85-2.42,2.82-8.11,10.4-13.9,22.01-18.18,34.45-1.23,3.58-1.64,7.14-1.44,10.86.06,1.02-.17,1.93-1.4,2.14-1.22.2-2.03-.43-2.09-1.67-.05-.95-.07-1.91-.01-2.86.39-6.85-2.3-12.5-6.75-17.48-.63-.7-1.16-1.5-1.82-2.37-.66.76-.95,1.1-1.24,1.43-2.49,2.86-5.95,3.23-8.98.95-1.95-1.47-3.89-2.96-5.83-4.44-.18-.14-.4-.24-.91-.55.22.58.3.87.44,1.13,1.07,2.06,2.2,4.08,3.23,6.16,1.85,3.75.36,7.91-3.34,9.45-3.64,1.51-7.78-.42-9.09-4.32-.61-1.84-1.02-3.75-1.52-5.63-.07-.25-.16-.5-.24-.74-.12,0-.23.02-.35.02,0,1.04.07,2.09-.02,3.13-.09,1.15-.15,2.35-.53,3.42-1.29,3.67-5.45,5.52-9.26,4.23-3.6-1.22-5.61-5.13-4.42-8.82.66-2.04,1.54-4.01,2.32-6.02.11-.29.18-.6.32-1.11-2.01,1.35-3.81,2.58-5.65,3.78-2.72,1.77-5.59,1.59-7.9-.44-2.43-2.14-3.07-5.12-1.71-7.99.82-1.72,2.2-2.78,4-3.28,2.75-.76,5.52-1.47,8.28-2.21.21-.06.41-.15.6-.52-2.28-.17-4.57-.33-6.85-.52-3.53-.29-6.1-2.49-6.79-5.9-.57-2.8.54-5.07,2.62-6.84,1.96-1.67,4.24-2.29,6.7-1.19,2.53,1.13,5,2.39,7.5,3.59.36.17.72.34,1.32.33-.59-1.29-1.18-2.58-1.76-3.88-.57-1.28-1.25-2.54-1.69-3.86-1.22-3.68.69-7.37,4.32-8.53,3.53-1.13,7.36.73,8.44,4.33.62,2.05.82,4.22,1.21,6.33.09.47.18.94.27,1.4,1.6-2.34,3.09-4.66,4.73-6.88,1.28-1.74,2.75-3.31,5-3.88,2.56-.65,5.52.54,6.98,2.91,1.45,2.36,1.2,5.36-.79,7.32-1.41,1.39-3.01,2.6-4.5,3.91-.32.28-.55.66-.83.99.08.1.16.2.24.29Zm5.11-120.05c-.02-5.26-3.93-9.31-8.97-9.29-5.37.03-9.47,3.98-9.44,9.11.03,5.52,3.98,9.37,9.58,9.33,4.94-.03,8.85-4.09,8.83-9.16Zm93.09,86.31c3.02.01,5.38-2.24,5.42-5.16.04-2.9-2.33-5.29-5.27-5.31-3.09-.02-5.42,2.22-5.45,5.24-.03,2.93,2.29,5.22,5.3,5.23Zm-109.63,48.79c2.99-.01,5.34-2.24,5.33-5.05,0-3.08-2.26-5.39-5.26-5.41-3.02-.01-5.42,2.32-5.43,5.28-.01,2.9,2.36,5.19,5.36,5.18Z"/>
  <path d="m139.46,89.5c-2.22-.62-4.26-1.11-6.25-1.75-5.45-1.75-10.06-4.8-13.8-9.15-1.89-2.2-3.84-4.35-5.74-6.55-3.19-3.7-2.94-7.02.73-10.26,7.11-6.27,17.51-7.54,26.28-3.21.4.2.8.37,1.41.64-.39-2.15-.81-4.07-1.07-6.02-1.97-14.72,10.4-26.71,22.96-25.7,8.59.7,14.16,5.52,17.44,13.2,2.54,5.94,2.55,12.08.9,18.27-.99,3.72-1.93,7.45-2.93,11.29,1.31.42,2.62.85,3.95,1.23.17.05.46-.17.64-.33,3.62-3.37,7.28-6.76,8.79-11.67.69-2.23.93-4.6,1.36-6.91.08-.44-.03-1.06.22-1.31.48-.47,1.16-1,1.77-1.01.91-.02,1.25.81,1.25,1.69,0,4.62-.96,9.02-3.54,12.87-1.51,2.25-3.47,4.19-5.23,6.28-.23.27-.45.54-.89,1.05,7.58-1.15,12.28-5.72,16.08-11.62.33,2.62.68,5.05-1.32,7.17-4.3,4.54-9.63,7.07-15.63,8.37-.79.17-1.17.46-1.34,1.29-.46,2.15-1.88,3.58-3.87,4.38-4.33,1.75-8.69,3.44-13.04,5.16-6.12,2.42-12.22,4.86-18.35,7.24-3.86,1.5-7.87,1.98-11.96,1.31-.76-.12-1.7-.65-2.05-1.28-.23-.41.34-1.42.78-2,.68-.92,1.55-1.7,2.45-2.67Zm22.33-28.54c5.85.14,10.48-4.36,10.6-10.32.12-5.88-4.18-10.41-10.04-10.59-6.06-.18-10.86,4.31-10.97,10.28-.11,5.72,4.56,10.48,10.42,10.62Zm-29.24,2.13c-3.91,0-6.87,3.06-6.89,7.11-.02,3.95,3.16,7.09,7.12,7.05,3.79-.04,7.07-3.34,7.06-7.09-.01-3.95-3.23-7.07-7.29-7.07Zm9.03,29.16c3.28.08,6.29-.5,9.19-1.67,9.74-3.92,19.48-7.83,29.21-11.76.61-.25,1.21-.55,1.74-.93.87-.62.67-1.53.47-2.39-.26-1.07-1.12-1.61-2.1-1.63-.63,0-1.52.36-1.83.85-.62.99-1.43,1.54-2.46,1.95-9.99,3.96-19.96,7.96-29.96,11.89-1.82.71-3.21,1.8-4.26,3.69Z"/>
  <path d="m44.94,115.09c3.78.1,7.55.4,11.1,1.77,2.81,1.09,5.59,2.29,8.24,3.72,2.71,1.46,4.03,3.97,3.7,7.05-.33,3.1-2.06,5.3-5.11,6.24-2.25.7-4.53,1.28-6.82,1.84-1.68.41-2.53,1.3-2.85,3.09-.73,4.14-4.98,5.99-8.58,3.84-1.16-.69-2.23-1.53-3.6-2.47.07.66.1,1.09.17,1.5,1.16,6.73-6.04,12.86-12.41,10.49-3.82-1.42-5.9-4.37-6.59-8.36-.65-3.72-.17-7.25,1.54-10.62.09-.18.15-.37.31-.78-.98.3-1.77.58-2.58.78-1.74.43-2.55-.42-2.07-2.17.22-.82.53-1.62.87-2.65-1.18.54-2.11,1.03-3.09,1.41-4.51,1.73-8.86,1.38-12.97-1.18-3.3-2.05-4.87-6.22-3.92-10.1.97-3.96,4.16-6.76,8.15-7.08,1.14-.09,2.29-.01,3.57-.01-.1-.21-.2-.48-.35-.72-.7-1.12-1.51-2.19-2.09-3.37-1.6-3.21-.13-6.67,3.25-7.83.04-.01.08-.03.12-.03,2.79-.11,3.79-1.84,4.17-4.34.25-1.67.78-3.3,1.25-4.93.92-3.15,2.93-5.19,6.25-5.61,3.31-.42,5.76,1.01,7.5,3.81,3.47,5.57,5.07,11.65,5.03,18.18,0,.25-.02.5-.01.75,0,.08.06.15.1.24,1.44-.28,2.89-.54,4.32-.86.27-.06.55-.36.7-.62,2.38-4.08,2.82-8.41,1.71-12.95-.31-1.27-.01-2.01.97-2.31,1.01-.31,1.77.17,2.19,1.41,1.44,4.28,1.15,8.48-.65,12.59-.27.63-.49,1.28-.86,2.24,3.52-1.88,6.95-2.64,10.56-2.34,1.35.11,2.7.4,4.02.74,1.3.33,1.82,1.16,1.55,2.14-.24.88-1.11,1.28-2.35.93-4.66-1.29-9.03-.69-13.07,1.97-.37.24-.67.76-.78,1.21-.26,1.07-.39,2.17-.6,3.39Zm15.1,16.24c-5.71-4.59-21.26-6.44-27.65-3.28.95,1.03,1.87,2.01,2.78,3.01,3.21,3.54,7.14,6.16,11.07,8.78,1.67,1.11,3.25.4,3.81-1.54.1-.36.17-.73.23-1.09.3-1.93,1.4-3.25,3.17-3.98.95-.39,1.97-.63,2.96-.91,1.17-.33,2.35-.64,3.63-.98Zm-38.83-38.65c-.37,1.46-.76,2.83-1.06,4.22-.65,3.08-2.43,4.94-5.56,5.59-2.44.5-3.03,2.12-1.61,4.23,1.43,2.13,2.81,4.33,4.46,6.28,2.09,2.48,4.44,4.75,6.72,7.16,3.25-5.84,1.36-23.63-2.94-27.47Zm2.51,35.56c.14.1.28.19.41.29,1.99-.65,3.9-1.3,5.44-2.95,3.45-3.68,7.08-7.2,10.64-10.79.61-.62,1.22-1.24,1.79-1.89.61-.69.43-1.37-.14-1.99-.75-.81-1.83-.87-2.74.03-4.48,4.42-8.98,8.81-13.33,13.36-.99,1.03-1.4,2.62-2.07,3.95Z"/>
</svg>