<?xml version="1.0" encoding="UTF-8"?>
<svg id="Layer_1" data-name="Layer 1" xmlns="http://www.w3.org/2000/svg" viewBox="0 0 213.94 206.19" fill="#1d1d1d">
  <path d="m51.96,187.13c.28,2.8.54,5.44.81,8.08.23,2.24.48,4.47.7,6.7.04.37.02.75-.01,1.12-.08.89-.62,1.36-1.48,1.38-.82.03-1.48-.27-1.58-1.22-.25-2.36-.48-4.72-.72-7.08-.31-2.98-.62-5.96-.95-9.07-1.19,0-2.31-.07-3.41.04-.31.03-.78.58-.81.92-.47,4.64-.88,9.28-1.32,13.93-.1,1.05-.02,2.25-1.55,2.45-.98.13-1.76-.14-1.73-1.22.06-2.03.22-4.06.42-6.08.33-3.27.71-6.53,1.09-9.92h-24.68c-.14,1.28-.29,2.63-.42,3.98-.36,3.69-.68,7.38-1.08,11.06-.08.77.02,1.74-1.04,2.07-1.51.47-2.33-.17-2.2-1.99.22-3.11.6-6.21.93-9.32.2-1.9.41-3.79.63-5.8-.56-.06-1.04-.09-1.52-.17-1.45-.25-1.99-.85-1.75-2.31.59-3.7,1.25-7.38,1.93-11.06.5-2.69,1.07-5.36,1.63-8.13-.37-.02-.64-.04-.92-.04-3.06-.05-5.09-1.78-5.53-4.83-1.66-11.4-3.34-22.81-4.94-34.22-.89-6.39-1.82-12.78-2.37-19.2-.29-3.41.06-6.89.39-10.32.7-7.25,1.53-14.49,2.39-21.72.84-7.11,1.66-14.22,2.75-21.29.29-1.88,1.55-3.62,2.38-5.41.5-1.08,1.22-2.09,1.54-3.21,2.1-7.35,5.93-13.51,12.06-18.15,3.52-2.66,7.09-5.28,9.51-9.07,1.45-2.27,2.74-4.65,3.95-7.06C38.84,3.53,45.57-.49,53.62.05c9.65.64,17.25,8.6,17.47,18.32.1,4.33-.02,8.67.29,12.98.27,3.81,1.02,7.59,1.53,11.38.09.68.38.86,1.06.88,7.04.24,11.2,3.24,13.32,10.03,2.26,7.26,4.24,14.6,6.36,21.9,2.02,6.98,4.07,13.96,6.08,20.95.25.85.53,1.23,1.55,1.02,8.96-1.85,17.94-3.63,26.91-5.44,2.35-.47,4.72-.92,7.05-1.49.55-.14,1.15-.62,1.47-1.11.86-1.32,1.58-2.73,2.38-4.1.76-1.31,1.48-1.66,2.89-1.27,1.73.47,3.1,1.45,3.68,3.22.28.85.63,1.17,1.52.8.49-.2,1.05-.24,1.58-.3,2.67-.32,4.14.69,4.58,3.35.91,5.5,1.77,11.01,2.59,16.52.38,2.56-.4,3.83-2.92,4.37-4.38.92-8.8,1.63-13.19,2.46-8.1,1.54-16.18,3.13-24.28,4.65-4.19.79-8.39,1.58-12.62,2.17-12.34,1.71-22.53-5.95-25.91-14.46-.06-.14-.18-.26-.41-.6-.09.65-.22,1.08-.21,1.51.17,5.03.26,10.07.56,15.09.36,5.94.87,11.88,1.37,17.81.86,10.12,1.77,20.24,2.65,30.36.38,4.4.74,8.79,1.13,13.19.12,1.35-.17,2.34-1.6,2.84-.3.1-.58.83-.54,1.23.45,4.68.99,9.35,1.45,14.03.13,1.36-.45,2.08-1.54,2.1-.91.02-1.5-.38-1.6-1.36-.23-2.4-.47-4.8-.72-7.2-.3-2.9-.62-5.79-.93-8.75h-24.66ZM26.66,47.08c-.05.18-.08.23-.07.26.08.14.15.3.26.42,2.54,2.76,3.59,6.02,3.22,9.75-.52,5.22-1.04,10.44-1.57,15.66-.64,6.42-1.27,12.84-1.95,19.26-.36,3.43-.85,6.86-1.25,10.29-.4,3.5.67,6.85,1.17,10.26.04.27.78.63,1.2.63,14.56.02,29.13,0,43.69.02,1.21,0,1.5-.37,1.49-1.55-.04-11.37,0-22.75-.04-34.12,0-1.37.42-2.23,1.61-2.93,2.64-1.54,4.53-3.77,5.31-6.79,1.1-4.25.08-8.05-2.49-11.53-2.2-2.98-4.29-6.03-6.48-9.01-.23-.31-.72-.56-1.11-.59-3.26-.26-3.26-.24-4.87,2.63-.08.14-.15.29-.24.44-3.1,5.46-6.19,10.92-9.31,16.36-.81,1.41-1.68,1.5-2.92.46-.32-.27-.61-.57-.9-.86-6.11-6.06-12.22-12.12-18.34-18.17-.34-.34-.77-.8-1.18-.82-1.76-.09-3.52-.04-5.24-.04Zm8.82,104.67c.01-.18.03-.36.04-.53-1.78-.85-3.53-1.78-5.35-2.51-1.21-.48-1.69-1.26-1.89-2.48-1.53-9.74-3.19-19.45-4.63-29.2-.82-5.58-2.2-11.12-1.39-16.86.36-2.51.52-5.05.79-7.57,1.13-10.68,2.29-21.35,3.37-32.04.22-2.22.52-4.55.09-6.69-.89-4.5-4.89-7.08-9.8-6.8-4,.23-7.65,3.79-8.14,8.01-.7,6.12-1.3,12.25-2.02,18.36-.85,7.23-1.7,14.46-2.69,21.67-.78,5.68-1.12,11.29-.16,17.01,1.47,8.86,2.64,17.77,3.89,26.67.96,6.84,1.83,13.69,2.8,20.53.39,2.76.87,3.06,3.61,2.63,2.62-.41,5.24-.83,7.86-1.24,2.13-.33,4.27-.57,6.38-.99,1.65-.33,1.86-.8,1.62-2.47-.14-.99-.22-1.99-.4-2.97-.22-1.21.29-1.85,1.44-1.99.98-.12,1.98-.14,2.96-.25.54-.06,1.07-.2,1.6-.3Zm38.93-104.59c.33.49.54.82.77,1.15,1.99,2.82,4.02,5.61,5.96,8.46,4.47,6.57,2.85,15.49-4.11,20.5-.66.47-.78.96-.78,1.66.03,4.17.02,8.33.05,12.5,0,.62.04,1.26.18,1.86.67,2.96,1.34,5.92,2.09,8.86,2.62,10.18,13.19,17.41,23.55,15.99,3.89-.54,7.73-1.43,11.59-2.16,12.66-2.39,25.31-4.78,37.97-7.15.94-.18,1.22-.5,1.03-1.49-.72-3.67-1.35-7.36-2.01-11.04-.31-1.7-.61-3.4-.93-5.17-1.72.32-3.25.62-4.8.88-1.7.29-1.99.09-2.3-1.54-.18-.95-.31-1.9-.51-3.21-.55.62-.89.91-1.11,1.27-.68,1.14-1.36,2.29-1.93,3.49-.46.97-1.19,1.37-2.2,1.57-12.15,2.41-24.28,4.84-36.43,7.26-2.54.5-2.69.42-3.43-2.05-1.43-4.77-2.83-9.56-4.22-14.35-2.59-8.9-5.15-17.8-7.74-26.7-.51-1.75-.96-3.54-1.66-5.22-1.38-3.31-5.37-5.68-9.05-5.37Zm-37.49-.09c.18.31.21.4.26.45,5.1,5.07,10.21,10.13,15.3,15.21.68.68,1.01.37,1.39-.29,2.76-4.84,5.54-9.66,8.31-14.5.13-.23.17-.51.29-.9-1.67,0-3.2.09-4.73-.02-1.76-.13-2.1-.53-2.16-2.23-.05-1.53-.01-3.06-.01-4.6-.94-.23-1.8-.36-2.62-.65-1.21-.42-2.4-.89-3.55-1.45-.76-.37-1.01-1.14-.65-1.92.36-.79,1.1-.96,1.91-.76.44.11.85.35,1.29.44,1.41.28,2.83.7,4.25.74,2.69.07,4.41-1.76,4.42-4.45.01-2.46,0-4.92,0-7.37,0-1.37,0-2.73,0-4.06-3.74-.76-6.48-2.82-8.39-6.1-.22-.38-.93-.79-1.32-.72-2.78.55-4.94,1.97-5.75,4.85-.35,1.22-.93,1.9-2.22,2.15-1.55.3-2.07,1.15-2.03,2.66.03,1.31.68,1.99,1.91,2.4,2.14.71,2.08.79,2.05,2.9-.06,5.04-.08,10.08-.08,15.12,0,2.54-.49,3.09-3.01,3.11-1.56.01-3.12,0-4.86,0Z"/>
  <path d="m126.91,45.28c-.11-23.58,19.57-44.05,44.21-43.69,22.37.33,42.27,18.4,42.78,42.72.51,24.27-18.2,44.16-42.69,44.66-24.49.5-44.23-19.35-44.3-43.69Zm26.19-36.02c-.16-.07-.31-.13-.47-.2-8.55,4.53-15.21,10.96-18.97,20.05-4.69,11.37-4.51,22.74.87,33.98.48-1.7.8-3.42,1.06-5.15.22-1.41.81-2.04,1.94-1.93.94.09,1.5.86,1.5,2.1,0,2.76-.59,5.39-2,7.76-.46.78-.44,1.31.06,2,8.84,12.24,20.66,18.37,35.83,17.68.84-.04,1.02-.35,1.02-1.13-.02-2.96.02-5.92.04-8.87,0-.97,0-1.93,0-2.86-.29-.03-.34-.05-.37-.04-.11.05-.23.09-.33.16-5.83,4.16-12.14,5.4-18.78,2.44-7.06-3.14-11.25-8.59-11.92-16.49-.16-1.83.41-2.76,1.65-2.84,1.04-.06,1.67.83,1.79,2.54.26,3.63,1.34,6.95,3.86,9.65,4.68,5.03,10.5,6.3,16.84,4.37,6.1-1.86,9.55-6.31,10.47-12.69,1.22-8.45-3.98-15.99-12.17-17.61-1.14-.22-2.3-.31-3.45-.48-.95-.14-1.49-.67-1.52-1.67-.03-1.09.67-1.68,2.13-1.7,4.11-.06,7.67,1.5,10.96,3.83.21.15.43.27.95.59,0-2.13.02-3.96,0-5.78-.02-1.09.5-1.63,1.56-1.64,1.06,0,1.56.55,1.56,1.78,0,2.12.04,4.25-.07,6.37-.1,1.9.37,3.55,1.3,5.22,3.59,6.39,3.28,12.7-.58,18.9-.37.6-.62,1.38-.63,2.08-.05,4.75-.03,9.5-.02,14.25,0,.28.06.56.11.99.71-.09,1.36-.12,2-.25,5.2-1.06,9.79-3.52,14.25-6.3,1.07-.66,1.41-1.47,1.41-2.67-.03-14.25-.04-28.5-.02-42.74,0-4.46-1.64-8.01-5.41-10.47-2.18-1.42-4.65-1.69-7.16-1.69-8.55-.01-17.1,0-25.64,0-.74,0-1.49-.06-2.23-.11-1.06-.08-1.54-.63-1.45-1.73.06-.7,0-1.42,0-2.12,0-2.53,0-5.05,0-7.58Z"/>
  <path d="m170.39,118.9c24.15.2,42.88,19.02,43.53,42.73.65,24.02-18.85,44.03-42.27,44.55-24.93.56-44.54-19.59-44.74-43.22-.19-22.37,17.36-43.67,43.48-44.05Zm40.18,43.71c.41-20.49-16.1-40.13-39.83-40.39-21.05-.23-39.61,16.19-40.37,38.85-.82,24.29,18.49,42.1,40.52,41.78,24.09-.35,40.07-20.18,39.68-40.24Z"/>
  <path d="m161.72,64.46c-1.79.03-3.39-1.6-3.38-3.45,0-1.68,1.57-3.28,3.24-3.34,1.76-.06,3.49,1.57,3.53,3.33.04,1.79-1.58,3.43-3.39,3.46Z"/>
  <path d="m156.64,151.71c-2.9.65-5.47.63-7.79-.75-1.48-.88-2.81-2.04-4.14-3.15-1.03-.86-2.07-1.32-3.42-.85-2.4.84-3.07,4.02-1.15,6.22.85.98,2.04,1.67,3.13,2.42.19.13.71-.04.95-.23,1.91-1.53,4.1-1.73,6.37-1.26,2.3.47,3.96,2.48,4.09,4.75.13,2.17-1.33,4.24-3.59,4.99-1.97.65-3.95.56-5.8-.39-1.38-.71-2.38-1.83-2.55-3.47-.09-.87-.48-1.36-1.25-1.81-1.35-.79-2.7-1.66-3.82-2.74-2.22-2.13-2.71-5.42-1.43-8.18,1.17-2.55,3.62-4.07,6.38-3.93,1.8.09,3.14,1.06,4.45,2.24,1.15,1.04,2.4,2.08,3.78,2.75,2.15,1.04,4.41.42,6.53-.35.53-.19.95-.9,1.28-1.46,4.6-7.73,14.76-8.14,20.3-3.63,1.32,1.08,2.28,2.6,3.43,3.9.4.45.8.98,1.32,1.22,2.5,1.14,6.33,1.38,8.98-1.42.37-.39.76-.77,1.15-1.15,2.3-2.24,5.27-2.77,7.73-1.37,2.74,1.56,4.07,4.56,3.38,7.66-.51,2.31-1.76,4.11-3.75,5.37-.7.44-1.48.79-2.11,1.31-.43.35-.85.89-.96,1.41-.45,2-1.49,3.41-3.47,4.02-1.89.59-3.77.59-5.57-.28-2.03-.98-3.07-3.09-2.72-5.39.32-2.07,2.15-3.8,4.3-4.1,2.17-.31,4.22-.11,6.01,1.31.19.15.53.25.77.2,1.97-.45,4.12-2.74,4.43-4.66.27-1.67-.25-2.91-1.53-3.64-1.34-.77-2.94-.63-4.12.55-1.95,1.94-4.08,3.63-6.84,4.06-1.65.25-3.37.05-5.11.05-.03.19-.12.39-.1.58.23,2.32-.39,4.45-1.39,6.5-.86,1.75-1.71,3.51-2.53,5.28-.61,1.33-.74,2.7-.36,4.14.91,3.41,1.41,6.86.77,10.38-.25,1.38-.58,2.79-1.15,4.06-1.24,2.77-2.61,5.48-4.05,8.15-.29.53-1.11,1.05-1.72,1.09-2.19.16-4.39.17-6.59.13-.49,0-1.22-.32-1.43-.72-2.35-4.3-4.82-8.54-5.35-13.58-.31-2.99.02-5.91.69-8.79.51-2.16.2-4.12-.81-6.03-.25-.48-.5-.96-.75-1.44-1.62-3.04-3.52-5.99-2.85-9.94Zm15.54,23.26c1.61-.17,3.01-.33,4.41-.45.73-.06.9-.41.74-1.09-.23-.97-.32-1.98-.59-2.93-.95-3.31-.45-6.4,1.24-9.36.76-1.33,1.45-2.71,2.14-4.08.86-1.68,1.18-3.45.73-5.32-.08-.33-.25-.78-.51-.89-1.21-.54-2.92.62-3.18,1.91-.45,2.19-.86,4.41-1.62,6.5-.95,2.61-1.68,5.2-1.64,8,.02,1.2-.28,2.3-1.29,3.1-.22.18-.4.55-.41.84-.05,1.2-.02,2.4-.02,3.77Zm-11.8-23.87c-.89,2.91.02,5.37,1.3,7.78.7,1.32,1.32,2.68,1.99,4.02,1.05,2.1,1.28,4.28.64,6.55-.2.72-.38,1.45-.54,2.18q-.58,2.63,1.99,3.05c.08.01.16.04.24.05,2.82.42,2.87.39,2.73-2.46-.03-.67-.02-1.62-.43-1.95-1.08-.9-1.31-2.03-1.26-3.24.12-2.96-.8-5.62-1.93-8.3-.7-1.66-1.13-3.47-1.42-5.25-.41-2.53-.31-2.55-2.87-2.47-.16,0-.32.03-.45.05Zm1.72-3.75c3.03,1.93,14.71,1.81,16.59-.12-4.27-5.85-13.01-5.06-16.59.12Z"/>
</svg>